<svg xmlns="http://www.w3.org/2000/svg" width="821px" height="2349px" viewBox="0 0 821 2349" xmlns:xlink="http://www.w3.org/1999/xlink" style="display: block; width: 821px; height: 2349px; overflow: auto;"><rect width="821px" height="2349px" fill="white"/><clipPath id="ygc20_4"><rect x="25" y="25" width="770.5" height="2299"/></clipPath><g clip-path="url(#ygc20_4)"><g transform="translate(110.25 64.5)" image-rendering="auto" shape-rendering="auto" style="pointer-events: visiblepainted;"><g style="box-sizing: initial;"><g><g transform="translate(-80.25 -34.5)"><rect fill="rgb(224,224,224)" stroke="rgb(0,0,0)" stroke-opacity="1" stroke-width="1" stroke-linecap="butt" stroke-linejoin="miter" stroke-miterlimit="10" fill-opacity="1" x="0" y="0" width="760.5" height="2289" rx="0" ry="0"/><g transform="translate(0 0)"><g><g transform="translate(20 0)"><g transform="translate(0 0)"><rect x="0" y="0" width="740.5" height="1760" stroke="none" fill="rgb(196,215,237)" fill-opacity="1"/><rect x="0" y="0" width="20" height="1760" stroke="none" fill="rgb(224,224,224)" fill-opacity="1"/><rect x="0" y="0" width="740.5" height="0" stroke="none" fill="rgb(224,224,224)" fill-opacity="1"/><rect x="740.5" y="0" width="0" height="1760" stroke="none" fill="rgb(224,224,224)" fill-opacity="1"/><rect x="0" y="1760" width="740.5" height="0" stroke="none" fill="rgb(224,224,224)" fill-opacity="1"/><rect x="0" y="0" width="740.5" height="1760" stroke="rgb(0,0,0)" stroke-opacity="1" stroke-width="1" stroke-linecap="butt" stroke-linejoin="miter" stroke-miterlimit="10" fill="none"/></g></g><g transform="matrix(0 -1 1 0 22 1758)"><text font-family="Arial" font-size="12px" font-style="normal" font-weight="normal" text-decoration="none" text-anchor="middle" fill="rgb(0,0,0)" fill-opacity="1" dy="0.9166666666666666em" transform="translate(878 1)">Oko Webserver</text></g></g><g><g transform="translate(20 1760)"><g transform="translate(0 0)"><rect x="0" y="0" width="740.5" height="529" stroke="none" fill="rgb(171,200,226)" fill-opacity="1"/><rect x="0" y="0" width="20" height="529" stroke="none" fill="rgb(224,224,224)" fill-opacity="1"/><rect x="0" y="0" width="740.5" height="0" stroke="none" fill="rgb(224,224,224)" fill-opacity="1"/><rect x="740.5" y="0" width="0" height="529" stroke="none" fill="rgb(224,224,224)" fill-opacity="1"/><rect x="0" y="529" width="740.5" height="0" stroke="none" fill="rgb(224,224,224)" fill-opacity="1"/><rect x="0" y="0" width="740.5" height="529" stroke="rgb(0,0,0)" stroke-opacity="1" stroke-width="1" stroke-linecap="butt" stroke-linejoin="miter" stroke-miterlimit="10" fill="none"/></g></g><g transform="matrix(0 -1 1 0 22 2287)"><text font-family="Arial" font-size="12px" font-style="normal" font-weight="normal" text-decoration="none" text-anchor="middle" fill="rgb(0,0,0)" fill-opacity="1" dy="0.9166666666666666em" transform="translate(262.5 1)">Admin User</text></g></g><g><g><rect fill="rgb(255,255,255)" stroke="none" fill-opacity="0" x="40" y="0" width="720.5" height="2289" rx="0" ry="0"/></g></g></g></g></g><g><path fill="none" stroke="rgb(102,56,0)" d="M 595.25,1824.5 L 595.25,1856.0759993757804" stroke-opacity="1" stroke-width="1" stroke-linecap="butt" stroke-linejoin="miter" stroke-miterlimit="10"/><use transform="matrix(0 -1 1 0 595.25 1862.0759993757804)" xlink:href="#ygc20_0"/></g><g><path fill="none" stroke="rgb(102,56,0)" d="M 595.25,1964.5 L 595.25,1996.0759993757804" stroke-opacity="1" stroke-width="1" stroke-linecap="butt" stroke-linejoin="miter" stroke-miterlimit="10"/><use transform="matrix(0 -1 1 0 595.25 2002.0759993757804)" xlink:href="#ygc20_0"/></g><g><path fill="none" stroke="rgb(102,56,0)" d="M 595.25,2104.5 L 595.25,2136.0759993757806" stroke-opacity="1" stroke-width="1" stroke-linecap="butt" stroke-linejoin="miter" stroke-miterlimit="10"/><use transform="matrix(0 -1 1 0 595.25 2142.0759993757806)" xlink:href="#ygc20_0"/></g><g><path fill="none" stroke="rgb(102,56,0)" d="M 530.25,2194.5 L 387.25,2194.5 L 387.25,43.92400062421959" stroke-opacity="1" stroke-width="1" stroke-dasharray="2,2" stroke-dashoffset="1" stroke-linecap="square" stroke-linejoin="miter" stroke-miterlimit="10"/><use transform="matrix(0 1 -1 0 387.25 37.92400062421959)" xlink:href="#ygc20_0"/><use transform="matrix(-0.75 0 0 -0.75 530.25 2194.5)" xlink:href="#ygc20_1"/></g><g><path fill="none" stroke="rgb(102,56,0)" d="M 357.25,5.5 L 307.25,5.5 L 307.25,67.07599937578041" stroke-opacity="1" stroke-width="1" stroke-linecap="butt" stroke-linejoin="miter" stroke-miterlimit="10"/><use transform="matrix(0 -1 1 0 307.25 73.07599937578041)" xlink:href="#ygc20_0"/></g><g><path fill="none" stroke="rgb(102,56,0)" d="M 307.25,175.5 L 307.25,207.0759993757804" stroke-opacity="1" stroke-width="1" stroke-linecap="butt" stroke-linejoin="miter" stroke-miterlimit="10"/><use transform="matrix(0 -1 1 0 307.25 213.0759993757804)" xlink:href="#ygc20_0"/></g><g><path fill="none" stroke="rgb(102,56,0)" d="M 214.75,1824.5 L 214.75,1856.0759993757804" stroke-opacity="1" stroke-width="1" stroke-linecap="butt" stroke-linejoin="miter" stroke-miterlimit="10"/><use transform="matrix(0 -1 1 0 214.75 1862.0759993757804)" xlink:href="#ygc20_0"/></g><g><path fill="none" stroke="rgb(102,56,0)" d="M 257.25,265.5 L 227.25,265.5 L 227.25,347.0759993757804" stroke-opacity="1" stroke-width="1" stroke-linecap="butt" stroke-linejoin="miter" stroke-miterlimit="10"/><use transform="matrix(0 -1 1 0 227.25 353.0759993757804)" xlink:href="#ygc20_0"/></g><g><path fill="none" stroke="rgb(102,56,0)" d="M 227.25,455.5 L 227.25,487.0759993757804" stroke-opacity="1" stroke-width="1" stroke-linecap="butt" stroke-linejoin="miter" stroke-miterlimit="10"/><use transform="matrix(0 -1 1 0 227.25 493.0759993757804)" xlink:href="#ygc20_0"/></g><g><path fill="none" stroke="rgb(102,56,0)" d="M 214.75,1715.5 L 214.75,1756.0759993757804" stroke-opacity="1" stroke-width="1" stroke-dasharray="2,2" stroke-dashoffset="1" stroke-linecap="square" stroke-linejoin="miter" stroke-miterlimit="10"/><use transform="matrix(0 -1 1 0 214.75 1762.0759993757804)" xlink:href="#ygc20_0"/><use transform="matrix(0 0.75 -0.75 0 214.75 1715.5)" xlink:href="#ygc20_2"/></g><g><path fill="none" stroke="rgb(102,56,0)" d="M 214.75,1295.5 L 214.75,1607.0759993757804" stroke-opacity="1" stroke-width="1" stroke-linecap="butt" stroke-linejoin="miter" stroke-miterlimit="10"/><use transform="matrix(0 -1 1 0 214.75 1613.0759993757804)" xlink:href="#ygc20_0"/></g><g><path fill="none" stroke="rgb(102,56,0)" d="M 307.25,315.5 L 307.25,1115.5 L 252.25,1115.5 L 252.25,1224.5759993757804" stroke-opacity="1" stroke-width="1" stroke-linecap="butt" stroke-linejoin="miter" stroke-miterlimit="10"/><use transform="matrix(0 -1 1 0 252.25 1230.5759993757804)" xlink:href="#ygc20_0"/></g><g><path fill="none" stroke="rgb(102,56,0)" d="M 227.25,595.5 L 227.25,1199.5759993757804" stroke-opacity="1" stroke-width="1" stroke-linecap="butt" stroke-linejoin="miter" stroke-miterlimit="10"/><use transform="matrix(0 -1 1 0 227.25 1205.5759993757804)" xlink:href="#ygc20_0"/></g><g><path fill="none" stroke="rgb(102,56,0)" d="M 177.25,545.5 L 147.25,545.5 L 147.25,627.0759993757804" stroke-opacity="1" stroke-width="1" stroke-linecap="butt" stroke-linejoin="miter" stroke-miterlimit="10"/><use transform="matrix(0 -1 1 0 147.25 633.0759993757804)" xlink:href="#ygc20_0"/></g><g><path fill="none" stroke="rgb(102,56,0)" d="M 147.25,735.5 L 147.25,767.0759993757804" stroke-opacity="1" stroke-width="1" stroke-linecap="butt" stroke-linejoin="miter" stroke-miterlimit="10"/><use transform="matrix(0 -1 1 0 147.25 773.0759993757804)" xlink:href="#ygc20_0"/></g><g><path fill="none" stroke="rgb(102,56,0)" d="M 147.25,875.5 L 147.25,895.5 L 202.25,895.5 L 202.25,1199.5759993757804" stroke-opacity="1" stroke-width="1" stroke-linecap="butt" stroke-linejoin="miter" stroke-miterlimit="10"/><use transform="matrix(0 -1 1 0 202.25 1205.5759993757804)" xlink:href="#ygc20_0"/></g><g><path fill="none" stroke="rgb(102,56,0)" d="M 97.25,825.5 L 77.25,825.5 L 77.25,907.0759993757804" stroke-opacity="1" stroke-width="1" stroke-linecap="butt" stroke-linejoin="miter" stroke-miterlimit="10"/><use transform="matrix(0 -1 1 0 77.25 913.0759993757804)" xlink:href="#ygc20_0"/></g><g><path fill="none" stroke="rgb(102,56,0)" d="M 122.25,1015.5 L 122.25,1047.0759993757804" stroke-opacity="1" stroke-width="1" stroke-linecap="butt" stroke-linejoin="miter" stroke-miterlimit="10"/><use transform="matrix(0 -1 1 0 122.25 1053.0759993757804)" xlink:href="#ygc20_0"/></g><g><path fill="none" stroke="rgb(102,56,0)" d="M 122.25,1155.5 L 122.25,1175.5 L 177.25,1175.5 L 177.25,1224.5759993757804" stroke-opacity="1" stroke-width="1" stroke-linecap="butt" stroke-linejoin="miter" stroke-miterlimit="10"/><use transform="matrix(0 -1 1 0 177.25 1230.5759993757804)" xlink:href="#ygc20_0"/></g><g><path fill="none" stroke="rgb(102,56,0)" d="M 72.25,1105.5 L 44.75,1105.5 L 44.75,1187.0759993757804" stroke-opacity="1" stroke-width="1" stroke-linecap="butt" stroke-linejoin="miter" stroke-miterlimit="10"/><use transform="matrix(0 -1 1 0 44.75 1193.0759993757804)" xlink:href="#ygc20_0"/></g><g><path fill="none" stroke="rgb(102,56,0)" d="M 44.75,1295.5 L 44.75,1327.0759993757804" stroke-opacity="1" stroke-width="1" stroke-linecap="butt" stroke-linejoin="miter" stroke-miterlimit="10"/><use transform="matrix(0 -1 1 0 44.75 1333.0759993757804)" xlink:href="#ygc20_0"/></g><g><path fill="none" stroke="rgb(102,56,0)" d="M 44.75,1435.5 L 44.75,1467.0759993757804" stroke-opacity="1" stroke-width="1" stroke-linecap="butt" stroke-linejoin="miter" stroke-miterlimit="10"/><use transform="matrix(0 -1 1 0 44.75 1473.0759993757804)" xlink:href="#ygc20_0"/></g><g><path fill="none" stroke="rgb(102,56,0)" d="M 44.75,1575.5 L 44.75,1607.0759993757804" stroke-opacity="1" stroke-width="1" stroke-linecap="butt" stroke-linejoin="miter" stroke-miterlimit="10"/><use transform="matrix(0 -1 1 0 44.75 1613.0759993757804)" xlink:href="#ygc20_0"/></g><g><path fill="none" stroke="rgb(102,56,0)" d="M 44.75,1715.5 L 44.75,1756.0759993757804" stroke-opacity="1" stroke-width="1" stroke-dasharray="2,2" stroke-dashoffset="1" stroke-linecap="square" stroke-linejoin="miter" stroke-miterlimit="10"/><use transform="matrix(0 -1 1 0 44.75 1762.0759993757804)" xlink:href="#ygc20_0"/><use transform="matrix(0 0.75 -0.75 0 44.75 1715.5)" xlink:href="#ygc20_3"/></g><g><path fill="none" stroke="rgb(102,56,0)" d="M 44.75,1824.5 L 44.75,1856.0759993757804" stroke-opacity="1" stroke-width="1" stroke-linecap="butt" stroke-linejoin="miter" stroke-miterlimit="10"/><use transform="matrix(0 -1 1 0 44.75 1862.0759993757804)" xlink:href="#ygc20_0"/></g><g transform="translate(565.25 1764.5)"><path d="M 30,60 C 13.43145750507618,60 0,46.568542494923825 0,30 C 0,13.43145750507618 13.43145750507618,0 30,0 C 46.568542494923825,0 60,13.43145750507618 60,30 C 60,46.568542494923825 46.568542494923825,60 30,60 Z" stroke="rgb(0,128,0)" stroke-opacity="1" stroke-width="1" stroke-linecap="butt" stroke-linejoin="miter" stroke-miterlimit="10" fill="rgb(250,250,250)" fill-opacity="1" transform="translate(0 0)"/></g><g transform="translate(530.25 1864.5)"><g transform="translate(0 0)"><rect x="0" y="0" width="130" height="100" rx="6" ry="6" stroke="rgb(0,0,139)" stroke-opacity="1" stroke-width="1" stroke-linecap="butt" stroke-linejoin="miter" stroke-miterlimit="10" fill="rgb(250,250,250)" fill-opacity="1"/><g transform="translate(6 6)"><path d="M 15,15 L 0,15 L 0,10.514999999999999 Q 1.9500000000000002,7.5 4.74,6.6450000000000005 L 5.124121215213201,5.7358787847868005 C 3.8119595949289327,4.423717164502533 3.8119595949289327,2.2962828354974683 5.1241212152132,0.9841212152132005 C 6.436282835497467,-0.3280404050710672 8.563717164502531,-0.3280404050710676 9.8758787847868,0.9841212152131996 C 11.188040405071067,2.296282835497467 11.188040405071067,4.4237171645025315 9.875878784786801,5.7358787847868 L 10.260000000000002,6.6450000000000005 Q 13.05,7.5 15,10.514999999999999 Z" stroke="rgb(0,0,0)" stroke-opacity="1" stroke-width="1" stroke-linecap="round" stroke-linejoin="round" stroke-miterlimit="10" fill="rgb(0,0,0)" fill-opacity="0.16862745098039217" transform="translate(0 0)"/><path d="M 4.305,3.435 C 7.199999999999999,0.7949999999999999 7.800000000000001,3.795 10.695,2.055 C 10.433413965599524,0.8844760671890587 8.664516968862557,-0.29746311871018516 6.8444965180258075,0.0645614578451463 C 5.350844335149672,0.36166734958283275 4.140000000000001,1.837085440900938 4.140000000000001,3.3600000000000003 Z" stroke="rgb(0,0,0)" stroke-opacity="1" stroke-width="1" stroke-linecap="round" stroke-linejoin="round" stroke-miterlimit="10" fill="rgb(0,0,0)" fill-opacity="1" transform="translate(0 0)"/><path d="M 2.85,15 L 2.85,12.239999999999998 M 12.15,15 L 12.15,12.239999999999998 M 4.74,6.6450000000000005 C 4.5,10.08 10.5,10.08 10.260000000000002,6.6450000000000005" stroke="rgb(0,0,0)" stroke-opacity="1" stroke-width="1" stroke-linecap="round" stroke-linejoin="round" stroke-miterlimit="10" fill="rgb(255,255,255)" fill-opacity="0" transform="translate(0 0)"/></g></g></g><g transform="translate(530.25 2004.5)"><g transform="translate(0 0)"><rect x="0" y="0" width="130" height="100" rx="6" ry="6" stroke="rgb(0,0,139)" stroke-opacity="1" stroke-width="1" stroke-linecap="butt" stroke-linejoin="miter" stroke-miterlimit="10" fill="rgb(250,250,250)" fill-opacity="1"/><g transform="translate(6 6)"><path d="M 15,15 L 0,15 L 0,10.514999999999999 Q 1.9500000000000002,7.5 4.74,6.6450000000000005 L 5.124121215213201,5.7358787847868005 C 3.8119595949289327,4.423717164502533 3.8119595949289327,2.2962828354974683 5.1241212152132,0.9841212152132005 C 6.436282835497467,-0.3280404050710672 8.563717164502531,-0.3280404050710676 9.8758787847868,0.9841212152131996 C 11.188040405071067,2.296282835497467 11.188040405071067,4.4237171645025315 9.875878784786801,5.7358787847868 L 10.260000000000002,6.6450000000000005 Q 13.05,7.5 15,10.514999999999999 Z" stroke="rgb(0,0,0)" stroke-opacity="1" stroke-width="1" stroke-linecap="round" stroke-linejoin="round" stroke-miterlimit="10" fill="rgb(0,0,0)" fill-opacity="0.16862745098039217" transform="translate(0 0)"/><path d="M 4.305,3.435 C 7.199999999999999,0.7949999999999999 7.800000000000001,3.795 10.695,2.055 C 10.433413965599524,0.8844760671890587 8.664516968862557,-0.29746311871018516 6.8444965180258075,0.0645614578451463 C 5.350844335149672,0.36166734958283275 4.140000000000001,1.837085440900938 4.140000000000001,3.3600000000000003 Z" stroke="rgb(0,0,0)" stroke-opacity="1" stroke-width="1" stroke-linecap="round" stroke-linejoin="round" stroke-miterlimit="10" fill="rgb(0,0,0)" fill-opacity="1" transform="translate(0 0)"/><path d="M 2.85,15 L 2.85,12.239999999999998 M 12.15,15 L 12.15,12.239999999999998 M 4.74,6.6450000000000005 C 4.5,10.08 10.5,10.08 10.260000000000002,6.6450000000000005" stroke="rgb(0,0,0)" stroke-opacity="1" stroke-width="1" stroke-linecap="round" stroke-linejoin="round" stroke-miterlimit="10" fill="rgb(255,255,255)" fill-opacity="0" transform="translate(0 0)"/></g></g></g><g transform="translate(357.25 -24.5)"><g transform="translate(0 0)"><path d="M 30,60 C 13.43145750507618,60 0,46.568542494923825 0,30 C 0,13.43145750507618 13.43145750507618,0 30,0 C 46.568542494923825,0 60,13.43145750507618 60,30 C 60,46.568542494923825 46.568542494923825,60 30,60 Z" stroke="rgb(0,128,0)" stroke-opacity="1" stroke-width="1" stroke-linecap="butt" stroke-linejoin="miter" stroke-miterlimit="10" fill="rgb(250,250,250)" fill-opacity="1" transform="translate(0 0)"/><g transform="translate(10.559999999999999 16.114285714285717)"><path d="M 0,0 L 38.879999999999995,0 L 38.879999999999995,27.77142857142857 L 0,27.77142857142857 Z" stroke="rgb(0,0,0)" stroke-opacity="1" stroke-width="1" stroke-linecap="butt" stroke-linejoin="miter" stroke-miterlimit="10" fill="rgb(255,255,255)" fill-opacity="0" transform="translate(0 0)"/><path d="M 0,0 L 19.439999999999998,13.885714285714284 L 38.879999999999995,0" stroke="rgb(0,0,0)" stroke-opacity="1" stroke-width="1" stroke-linecap="butt" stroke-linejoin="miter" stroke-miterlimit="10" fill="rgb(255,255,255)" fill-opacity="0" transform="translate(0 0)"/></g></g></g><g transform="translate(530.25 2144.5)"><g transform="translate(0 0)"><rect x="0" y="0" width="130" height="100" rx="6" ry="6" stroke="rgb(0,0,139)" stroke-opacity="1" stroke-width="1" stroke-linecap="butt" stroke-linejoin="miter" stroke-miterlimit="10" fill="rgb(250,250,250)" fill-opacity="1"/><path d="M 15,0 C 5.512499999999999,3.75 20.5125,11.25 11.025,15 L 0,15 C 9.4875,11.25 -5.5125,3.75 3.975,0 Z M 2.917499999999999,2.999999999999999 L 9.5325,2.999999999999999 M 3.5174999999999996,6 L 10.1325,6 M 4.8675,9 L 11.482500000000002,9 M 5.4675,12 L 12.0825,12" stroke="rgb(0,0,0)" stroke-opacity="1" stroke-width="1" stroke-linecap="round" stroke-linejoin="round" stroke-miterlimit="10" fill="rgb(255,255,255)" fill-opacity="0" transform="translate(6 6)"/></g></g><g transform="translate(242.25 75.5)"><rect x="0" y="0" width="130" height="100" rx="6" ry="6" stroke="rgb(0,0,139)" stroke-opacity="1" stroke-width="1" stroke-linecap="butt" stroke-linejoin="miter" stroke-miterlimit="10" fill="rgb(250,250,250)" fill-opacity="1"/></g><g transform="translate(257.25 215.5)"><path d="M 50,0 L 100,50 L 50,100 L 0,50 Z" stroke="rgb(255,140,0)" stroke-opacity="1" stroke-width="1" stroke-linecap="butt" stroke-linejoin="miter" stroke-miterlimit="10" fill="rgb(250,250,250)" fill-opacity="1" transform="translate(0 0)"/></g><g transform="translate(184.75 1764.5)"><g transform="translate(0 0)"><path d="M 30,60 C 13.43145750507618,60 0,46.568542494923825 0,30 C 0,13.43145750507618 13.43145750507618,0 30,0 C 46.568542494923825,0 60,13.43145750507618 60,30 C 60,46.568542494923825 46.568542494923825,60 30,60 Z" stroke="rgb(0,128,0)" stroke-opacity="1" stroke-width="1" stroke-linecap="butt" stroke-linejoin="miter" stroke-miterlimit="10" fill="rgb(250,250,250)" fill-opacity="1" transform="translate(0 0)"/><g transform="translate(10.559999999999999 16.114285714285717)"><path d="M 0,0 L 38.879999999999995,0 L 38.879999999999995,27.77142857142857 L 0,27.77142857142857 Z" stroke="rgb(0,0,0)" stroke-opacity="1" stroke-width="1" stroke-linecap="butt" stroke-linejoin="miter" stroke-miterlimit="10" fill="rgb(255,255,255)" fill-opacity="0" transform="translate(0 0)"/><path d="M 0,0 L 19.439999999999998,13.885714285714284 L 38.879999999999995,0" stroke="rgb(0,0,0)" stroke-opacity="1" stroke-width="1" stroke-linecap="butt" stroke-linejoin="miter" stroke-miterlimit="10" fill="rgb(255,255,255)" fill-opacity="0" transform="translate(0 0)"/></g></g></g><g transform="translate(149.75 1864.5)"><g transform="translate(0 0)"><rect x="0" y="0" width="130" height="100" rx="6" ry="6" stroke="rgb(0,0,139)" stroke-opacity="1" stroke-width="1" stroke-linecap="butt" stroke-linejoin="miter" stroke-miterlimit="10" fill="rgb(250,250,250)" fill-opacity="1"/><path d="M 15,0 C 5.512499999999999,3.75 20.5125,11.25 11.025,15 L 0,15 C 9.4875,11.25 -5.5125,3.75 3.975,0 Z M 2.917499999999999,2.999999999999999 L 9.5325,2.999999999999999 M 3.5174999999999996,6 L 10.1325,6 M 4.8675,9 L 11.482500000000002,9 M 5.4675,12 L 12.0825,12" stroke="rgb(0,0,0)" stroke-opacity="1" stroke-width="1" stroke-linecap="round" stroke-linejoin="round" stroke-miterlimit="10" fill="rgb(255,255,255)" fill-opacity="0" transform="translate(6 6)"/></g></g><g transform="translate(162.25 355.5)"><rect x="0" y="0" width="130" height="100" rx="6" ry="6" stroke="rgb(0,0,139)" stroke-opacity="1" stroke-width="1" stroke-linecap="butt" stroke-linejoin="miter" stroke-miterlimit="10" fill="rgb(250,250,250)" fill-opacity="1"/></g><g transform="translate(177.25 495.5)"><path d="M 50,0 L 100,50 L 50,100 L 0,50 Z" stroke="rgb(255,140,0)" stroke-opacity="1" stroke-width="1" stroke-linecap="butt" stroke-linejoin="miter" stroke-miterlimit="10" fill="rgb(250,250,250)" fill-opacity="1" transform="translate(0 0)"/></g><g transform="translate(149.75 1615.5)"><rect x="0" y="0" width="130" height="100" rx="6" ry="6" stroke="rgb(0,0,139)" stroke-opacity="1" stroke-width="1" stroke-linecap="butt" stroke-linejoin="miter" stroke-miterlimit="10" fill="rgb(250,250,250)" fill-opacity="1"/></g><g transform="translate(164.75 1195.5)"><path d="M 50,0 L 100,50 L 50,100 L 0,50 Z" stroke="rgb(255,140,0)" stroke-opacity="1" stroke-width="1" stroke-linecap="butt" stroke-linejoin="miter" stroke-miterlimit="10" fill="rgb(250,250,250)" fill-opacity="1" transform="translate(0 0)"/></g><g transform="translate(82.25 635.5)"><rect x="0" y="0" width="130" height="100" rx="6" ry="6" stroke="rgb(0,0,139)" stroke-opacity="1" stroke-width="1" stroke-linecap="butt" stroke-linejoin="miter" stroke-miterlimit="10" fill="rgb(250,250,250)" fill-opacity="1"/></g><g transform="translate(57.25 915.5)"><rect x="0" y="0" width="130" height="100" rx="6" ry="6" stroke="rgb(0,0,139)" stroke-opacity="1" stroke-width="1" stroke-linecap="butt" stroke-linejoin="miter" stroke-miterlimit="10" fill="rgb(250,250,250)" fill-opacity="1"/></g><g transform="translate(97.25 775.5)"><path d="M 50,0 L 100,50 L 50,100 L 0,50 Z" stroke="rgb(255,140,0)" stroke-opacity="1" stroke-width="1" stroke-linecap="butt" stroke-linejoin="miter" stroke-miterlimit="10" fill="rgb(250,250,250)" fill-opacity="1" transform="translate(0 0)"/></g><g transform="translate(72.25 1055.5)"><path d="M 50,0 L 100,50 L 50,100 L 0,50 Z" stroke="rgb(255,140,0)" stroke-opacity="1" stroke-width="1" stroke-linecap="butt" stroke-linejoin="miter" stroke-miterlimit="10" fill="rgb(250,250,250)" fill-opacity="1" transform="translate(0 0)"/></g><g transform="translate(-20.25 1195.5)"><rect x="0" y="0" width="130" height="100" rx="6" ry="6" stroke="rgb(0,0,139)" stroke-opacity="1" stroke-width="1" stroke-linecap="butt" stroke-linejoin="miter" stroke-miterlimit="10" fill="rgb(250,250,250)" fill-opacity="1"/></g><g transform="translate(-20.25 1335.5)"><rect x="0" y="0" width="130" height="100" rx="6" ry="6" stroke="rgb(0,0,139)" stroke-opacity="1" stroke-width="1" stroke-linecap="butt" stroke-linejoin="miter" stroke-miterlimit="10" fill="rgb(250,250,250)" fill-opacity="1"/></g><g transform="translate(-20.25 1475.5)"><rect x="0" y="0" width="130" height="100" rx="6" ry="6" stroke="rgb(0,0,139)" stroke-opacity="1" stroke-width="1" stroke-linecap="butt" stroke-linejoin="miter" stroke-miterlimit="10" fill="rgb(250,250,250)" fill-opacity="1"/></g><g transform="translate(-20.25 1615.5)"><rect x="0" y="0" width="130" height="100" rx="6" ry="6" stroke="rgb(0,0,139)" stroke-opacity="1" stroke-width="1" stroke-linecap="butt" stroke-linejoin="miter" stroke-miterlimit="10" fill="rgb(250,250,250)" fill-opacity="1"/></g><g transform="translate(14.75 1764.5)"><g transform="translate(0 0)"><path d="M 30,60 C 13.43145750507618,60 0,46.568542494923825 0,30 C 0,13.43145750507618 13.43145750507618,0 30,0 C 46.568542494923825,0 60,13.43145750507618 60,30 C 60,46.568542494923825 46.568542494923825,60 30,60 Z" stroke="rgb(0,128,0)" stroke-opacity="1" stroke-width="1" stroke-linecap="butt" stroke-linejoin="miter" stroke-miterlimit="10" fill="rgb(250,250,250)" fill-opacity="1" transform="translate(0 0)"/><g transform="translate(10.559999999999999 16.114285714285717)"><path d="M 0,0 L 38.879999999999995,0 L 38.879999999999995,27.77142857142857 L 0,27.77142857142857 Z" stroke="rgb(0,0,0)" stroke-opacity="1" stroke-width="1" stroke-linecap="butt" stroke-linejoin="miter" stroke-miterlimit="10" fill="rgb(255,255,255)" fill-opacity="0" transform="translate(0 0)"/><path d="M 0,0 L 19.439999999999998,13.885714285714284 L 38.879999999999995,0" stroke="rgb(0,0,0)" stroke-opacity="1" stroke-width="1" stroke-linecap="butt" stroke-linejoin="miter" stroke-miterlimit="10" fill="rgb(255,255,255)" fill-opacity="0" transform="translate(0 0)"/></g></g></g><g transform="translate(-20.25 1864.5)"><g transform="translate(0 0)"><rect x="0" y="0" width="130" height="100" rx="6" ry="6" stroke="rgb(0,0,139)" stroke-opacity="1" stroke-width="1" stroke-linecap="butt" stroke-linejoin="miter" stroke-miterlimit="10" fill="rgb(250,250,250)" fill-opacity="1"/><path d="M 15,0 C 5.512499999999999,3.75 20.5125,11.25 11.025,15 L 0,15 C 9.4875,11.25 -5.5125,3.75 3.975,0 Z M 2.917499999999999,2.999999999999999 L 9.5325,2.999999999999999 M 3.5174999999999996,6 L 10.1325,6 M 4.8675,9 L 11.482500000000002,9 M 5.4675,12 L 12.0825,12" stroke="rgb(0,0,0)" stroke-opacity="1" stroke-width="1" stroke-linecap="round" stroke-linejoin="round" stroke-miterlimit="10" fill="rgb(255,255,255)" fill-opacity="0" transform="translate(6 6)"/></g></g><g transform="matrix(1.8369701987210297e-16 -1 1 1.8369701987210297e-16 231.625 320.5)"><text font-family="Arial" font-size="12px" font-style="normal" font-weight="normal" text-decoration="none" text-anchor="middle" fill="black" dy="0.9166666666666666em" transform="translate(10 0)">Yes</text></g><g transform="matrix(1 1.2246467991473532e-16 -1.2246467991473532e-16 1 271.75 1121)"><text font-family="Arial" font-size="12px" font-style="normal" font-weight="normal" text-decoration="none" text-anchor="middle" fill="black" dy="0.9166666666666666em" transform="translate(8 0)">No</text></g><g transform="matrix(1.8369701987210297e-16 -1 1 1.8369701987210297e-16 234.7500000000005 927.75)"><text font-family="Arial" font-size="12px" font-style="normal" font-weight="normal" text-decoration="none" text-anchor="middle" fill="black" dy="0.9166666666666666em" transform="translate(8 0)">No</text></g><g transform="matrix(1.8369701987210297e-16 -1 1 1.8369701987210297e-16 154 600.5)"><text font-family="Arial" font-size="12px" font-style="normal" font-weight="normal" text-decoration="none" text-anchor="middle" fill="black" dy="0.9166666666666666em" transform="translate(10 0)">Yes</text></g><g transform="translate(164.125 876)"><text font-family="Arial" font-size="12px" font-style="normal" font-weight="normal" text-decoration="none" text-anchor="middle" fill="black" dy="0.9166666666666666em" transform="translate(10 0)">Yes</text></g><g transform="matrix(1.8369701987210297e-16 -1 1 1.8369701987210297e-16 58.999999999999986 878.5)"><text font-family="Arial" font-size="12px" font-style="normal" font-weight="normal" text-decoration="none" text-anchor="middle" fill="black" dy="0.9166666666666666em" transform="translate(8 0)">No</text></g><g transform="translate(141.75 1179.125)"><text font-family="Arial" font-size="12px" font-style="normal" font-weight="normal" text-decoration="none" text-anchor="middle" fill="black" dy="0.9166666666666666em" transform="translate(8 0)">No</text></g><g transform="matrix(1.8369701987210297e-16 -1 1 1.8369701987210297e-16 25.25 1161.125)"><text font-family="Arial" font-size="12px" font-style="normal" font-weight="normal" text-decoration="none" text-anchor="middle" fill="black" dy="0.9166666666666666em" transform="translate(10 0)">Yes</text></g><g transform="translate(521.25 1745.5)"><text font-family="Arial" font-size="12px" font-style="normal" font-weight="normal" text-decoration="none" text-anchor="middle" fill="black" dy="0.9166666666666666em" transform="translate(74 0)">Admin Clicks on "Add User"</text></g><g transform="translate(532.25 1866.5)"><text font-family="Arial" font-size="12px" font-style="normal" font-weight="normal" text-decoration="none" text-anchor="middle" fill="rgb(0,0,0)" fill-opacity="1" transform="translate(63 33.8)"><tspan x="0" y="11">Fill in Username and</tspan><tspan x="0" y="27.4">Password Fields</tspan></text></g><g transform="translate(532.25 2006.5)"><text font-family="Arial" font-size="12px" font-style="normal" font-weight="normal" text-decoration="none" text-anchor="middle" fill="rgb(0,0,0)" fill-opacity="1" dy="0.9166666666666666em" transform="translate(63 41)">Click on "Submit"</text></g><g transform="translate(422.25 -1.5)"><text font-family="Arial" font-size="12px" font-style="normal" font-weight="normal" text-decoration="none" text-anchor="middle" fill="black" dy="0.9166666666666666em" transform="translate(76.5 0)">Receive User Creation Form</text></g><g transform="translate(532.25 2146.5)"><text font-family="Arial" font-size="12px" font-style="normal" font-weight="normal" text-decoration="none" text-anchor="middle" fill="rgb(0,0,0)" fill-opacity="1" transform="translate(63 33.8)"><tspan x="0" y="11">Send User Creation</tspan><tspan x="0" y="27.4">Form</tspan></text></g><g transform="translate(244.25 77.5)"><text font-family="Arial" font-size="12px" font-style="normal" font-weight="normal" text-decoration="none" text-anchor="middle" fill="rgb(0,0,0)" fill-opacity="1" dy="0.9166666666666666em" transform="translate(63 41)">Check if User is Admin</text></g><g transform="translate(229.625 1745.5)"><text font-family="Arial" font-size="12px" font-style="normal" font-weight="normal" text-decoration="none" text-anchor="middle" fill="black" dy="0.9166666666666666em" transform="translate(37 0)">Receive Error</text></g><g transform="translate(151.75 1866.5)"><text font-family="Arial" font-size="12px" font-style="normal" font-weight="normal" text-decoration="none" text-anchor="middle" fill="rgb(0,0,0)" fill-opacity="1" dy="0.9166666666666666em" transform="translate(63 41)">Display Error</text></g><g transform="translate(164.25 357.5)"><text font-family="Arial" font-size="12px" font-style="normal" font-weight="normal" text-decoration="none" text-anchor="middle" fill="rgb(0,0,0)" fill-opacity="1" transform="translate(63 33.8)"><tspan x="0" y="11">Check if Username is</tspan><tspan x="0" y="27.4">Valid</tspan></text></g><g transform="translate(151.75 1617.5)"><text font-family="Arial" font-size="12px" font-style="normal" font-weight="normal" text-decoration="none" text-anchor="middle" fill="rgb(0,0,0)" fill-opacity="1" dy="0.9166666666666666em" transform="translate(63 41)">Send Error</text></g><g transform="translate(84.25 637.5)"><text font-family="Arial" font-size="12px" font-style="normal" font-weight="normal" text-decoration="none" text-anchor="middle" fill="rgb(0,0,0)" fill-opacity="1" transform="translate(63 26.6)"><tspan x="0" y="11">Check if User with</tspan><tspan x="0" y="27.4">Form Username</tspan><tspan x="0" y="41.8">Already Exists</tspan></text></g><g transform="translate(59.25 917.5)"><text font-family="Arial" font-size="12px" font-style="normal" font-weight="normal" text-decoration="none" text-anchor="middle" fill="rgb(0,0,0)" fill-opacity="1" transform="translate(63 33.8)"><tspan x="0" y="11">Check if Password is</tspan><tspan x="0" y="27.4">Valid</tspan></text></g><g transform="translate(-18.25 1197.5)"><text font-family="Arial" font-size="12px" font-style="normal" font-weight="normal" text-decoration="none" text-anchor="middle" fill="rgb(0,0,0)" fill-opacity="1" transform="translate(63 33.8)"><tspan x="0" y="11">Calculate Password</tspan><tspan x="0" y="27.4">Hash</tspan></text></g><g transform="translate(-18.25 1337.5)"><text font-family="Arial" font-size="12px" font-style="normal" font-weight="normal" text-decoration="none" text-anchor="middle" fill="rgb(0,0,0)" fill-opacity="1" dy="0.9166666666666666em" transform="translate(63 41)">Add User to Database</text></g><g transform="translate(-18.25 1477.5)"><text font-family="Arial" font-size="12px" font-style="normal" font-weight="normal" text-decoration="none" text-anchor="middle" fill="rgb(0,0,0)" fill-opacity="1" transform="translate(63 19.4)"><tspan x="0" y="11">Add Empty Camera</tspan><tspan x="0" y="27.4">Permissions for User to</tspan><tspan x="0" y="41.8">All Cameras in</tspan><tspan x="0" y="56.199999999999996">Database</tspan></text></g><g transform="translate(-18.25 1617.5)"><text font-family="Arial" font-size="12px" font-style="normal" font-weight="normal" text-decoration="none" text-anchor="middle" fill="rgb(0,0,0)" fill-opacity="1" dy="0.9166666666666666em" transform="translate(63 41)">Send Success</text></g><g transform="translate(58.375 1745.5)"><text font-family="Arial" font-size="12px" font-style="normal" font-weight="normal" text-decoration="none" text-anchor="middle" fill="black" dy="0.9166666666666666em" transform="translate(46.5 0)">Receive Success</text></g><g transform="translate(-18.25 1866.5)"><text font-family="Arial" font-size="12px" font-style="normal" font-weight="normal" text-decoration="none" text-anchor="middle" fill="rgb(0,0,0)" fill-opacity="1" dy="0.9166666666666666em" transform="translate(63 41)">Display Success</text></g></g></g></g><defs><path fill="rgb(102,56,0)" stroke="rgb(102,56,0)" d="M 6,-2.25 L 0,0 L 6,2.25 Z" fill-opacity="1" stroke-opacity="1" stroke-width="1" stroke-linecap="butt" stroke-linejoin="miter" stroke-miterlimit="10" id="ygc20_0"/><g id="ygc20_1"><circle fill="#fff" stroke="rgb(102,56,0)" stroke-opacity="1" stroke-width="1" stroke-linecap="butt" stroke-linejoin="miter" stroke-miterlimit="10" cx="15" cy="0" r="5"/><path d="M 10,0 L -2,8 M 10,0 L -2,0 M 10,0 L -2,-8" stroke="rgb(102,56,0)" stroke-opacity="1" stroke-width="1" stroke-linecap="butt" stroke-linejoin="miter" stroke-miterlimit="10"/></g><g id="ygc20_2"><circle fill="#fff" stroke="rgb(102,56,0)" stroke-opacity="1" stroke-width="1" stroke-linecap="butt" stroke-linejoin="miter" stroke-miterlimit="10" cx="15" cy="0" r="5"/><path d="M 10,0 L -2,8 M 10,0 L -2,0 M 10,0 L -2,-8" stroke="rgb(102,56,0)" stroke-opacity="1" stroke-width="1" stroke-linecap="butt" stroke-linejoin="miter" stroke-miterlimit="10"/></g><g id="ygc20_3"><circle fill="#fff" stroke="rgb(102,56,0)" stroke-opacity="1" stroke-width="1" stroke-linecap="butt" stroke-linejoin="miter" stroke-miterlimit="10" cx="15" cy="0" r="5"/><path d="M 10,0 L -2,8 M 10,0 L -2,0 M 10,0 L -2,-8" stroke="rgb(102,56,0)" stroke-opacity="1" stroke-width="1" stroke-linecap="butt" stroke-linejoin="miter" stroke-miterlimit="10"/></g></defs></svg>
