<svg xmlns="http://www.w3.org/2000/svg" width="1433px" height="624px" viewBox="0 0 1433 624" xmlns:xlink="http://www.w3.org/1999/xlink" style="display: block; width: 1433px; height: 624px; overflow: auto;"><rect width="1433px" height="624px" fill="white"/><clipPath id="ygc28_4"><rect x="25" y="25" width="1383" height="574"/></clipPath><g clip-path="url(#ygc28_4)"><g transform="translate(80 584)" image-rendering="auto" shape-rendering="auto" style="pointer-events: visiblepainted;"><g style="box-sizing: initial;"><g><g transform="translate(-50 -554)"><rect fill="rgb(224,224,224)" stroke="rgb(0,0,0)" stroke-opacity="1" stroke-width="1" stroke-linecap="butt" stroke-linejoin="miter" stroke-miterlimit="10" fill-opacity="1" x="0" y="0" width="1373" height="564" rx="0" ry="0"/><g transform="translate(0 0)"><g><g transform="translate(20 0)"><g transform="translate(0 0)"><rect x="0" y="0" width="1353" height="140" stroke="none" fill="rgb(196,215,237)" fill-opacity="1"/><rect x="0" y="0" width="20" height="140" stroke="none" fill="rgb(224,224,224)" fill-opacity="1"/><rect x="0" y="0" width="1353" height="0" stroke="none" fill="rgb(224,224,224)" fill-opacity="1"/><rect x="1353" y="0" width="0" height="140" stroke="none" fill="rgb(224,224,224)" fill-opacity="1"/><rect x="0" y="140" width="1353" height="0" stroke="none" fill="rgb(224,224,224)" fill-opacity="1"/><rect x="0" y="0" width="1353" height="140" stroke="rgb(0,0,0)" stroke-opacity="1" stroke-width="1" stroke-linecap="butt" stroke-linejoin="miter" stroke-miterlimit="10" fill="none"/></g></g><g transform="matrix(0 -1 1 0 22 138)"><text font-family="Arial" font-size="12px" font-style="normal" font-weight="normal" text-decoration="none" text-anchor="middle" fill="rgb(0,0,0)" fill-opacity="1" dy="0.9166666666666666em" transform="translate(68 1)">ESP32-CAM</text></g></g><g><g transform="translate(20 140)"><g transform="translate(0 0)"><rect x="0" y="0" width="1353" height="280" stroke="none" fill="rgb(171,200,226)" fill-opacity="1"/><rect x="0" y="0" width="20" height="280" stroke="none" fill="rgb(224,224,224)" fill-opacity="1"/><rect x="0" y="0" width="1353" height="0" stroke="none" fill="rgb(224,224,224)" fill-opacity="1"/><rect x="1353" y="0" width="0" height="280" stroke="none" fill="rgb(224,224,224)" fill-opacity="1"/><rect x="0" y="280" width="1353" height="0" stroke="none" fill="rgb(224,224,224)" fill-opacity="1"/><rect x="0" y="0" width="1353" height="280" stroke="rgb(0,0,0)" stroke-opacity="1" stroke-width="1" stroke-linecap="butt" stroke-linejoin="miter" stroke-miterlimit="10" fill="none"/></g></g><g transform="matrix(0 -1 1 0 22 418)"><text font-family="Arial" font-size="12px" font-style="normal" font-weight="normal" text-decoration="none" text-anchor="middle" fill="rgb(0,0,0)" fill-opacity="1" dy="0.9166666666666666em" transform="translate(138 1)">Oko Webserver</text></g></g><g><g transform="translate(20 420)"><g transform="translate(0 0)"><rect x="0" y="0" width="1353" height="144" stroke="none" fill="rgb(196,215,237)" fill-opacity="1"/><rect x="0" y="0" width="20" height="144" stroke="none" fill="rgb(224,224,224)" fill-opacity="1"/><rect x="0" y="0" width="1353" height="0" stroke="none" fill="rgb(224,224,224)" fill-opacity="1"/><rect x="1353" y="0" width="0" height="144" stroke="none" fill="rgb(224,224,224)" fill-opacity="1"/><rect x="0" y="144" width="1353" height="0" stroke="none" fill="rgb(224,224,224)" fill-opacity="1"/><rect x="0" y="0" width="1353" height="144" stroke="rgb(0,0,0)" stroke-opacity="1" stroke-width="1" stroke-linecap="butt" stroke-linejoin="miter" stroke-miterlimit="10" fill="none"/></g></g><g transform="matrix(0 -1 1 0 22 562)"><text font-family="Arial" font-size="12px" font-style="normal" font-weight="normal" text-decoration="none" text-anchor="middle" fill="rgb(0,0,0)" fill-opacity="1" dy="0.9166666666666666em" transform="translate(70 1)">Logged In User</text></g></g><g><g><rect fill="rgb(255,255,255)" stroke="none" fill-opacity="0" x="40" y="0" width="1333" height="564" rx="0" ry="0"/></g></g></g></g></g><g><path fill="none" stroke="rgb(102,56,0)" d="M 223,-60 L 254.5759993757804,-60" stroke-opacity="1" stroke-width="1" stroke-linecap="butt" stroke-linejoin="miter" stroke-miterlimit="10"/><use transform="matrix(-1 0 0 -1 260.5759993757804 -60)" xlink:href="#ygc28_0"/></g><g><path fill="none" stroke="rgb(102,56,0)" d="M 393,-60 L 413,-60 L 413,-344 L 424.5759993757804,-344" stroke-opacity="1" stroke-width="1" stroke-dasharray="2,2" stroke-dashoffset="1" stroke-linecap="square" stroke-linejoin="miter" stroke-miterlimit="10"/><use transform="matrix(-1 0 0 -1 430.5759993757804 -344)" xlink:href="#ygc28_0"/><use transform="matrix(0.75 0 0 0.75 393 -60)" xlink:href="#ygc28_1"/></g><g><path fill="none" stroke="rgb(102,56,0)" d="M 493,-344 L 524.5759993757804,-344" stroke-opacity="1" stroke-width="1" stroke-linecap="butt" stroke-linejoin="miter" stroke-miterlimit="10"/><use transform="matrix(-1 0 0 -1 530.5759993757804 -344)" xlink:href="#ygc28_0"/></g><g><path fill="none" stroke="rgb(102,56,0)" d="M 663,-344 L 694.5759993757804,-344" stroke-opacity="1" stroke-width="1" stroke-linecap="butt" stroke-linejoin="miter" stroke-miterlimit="10"/><use transform="matrix(-1 0 0 -1 700.5759993757804 -344)" xlink:href="#ygc28_0"/></g><g><path fill="none" stroke="rgb(102,56,0)" d="M 753,-294 L 753,-204 L 834.5759993757804,-204" stroke-opacity="1" stroke-width="1" stroke-linecap="butt" stroke-linejoin="miter" stroke-miterlimit="10"/><use transform="matrix(-1 0 0 -1 840.5759993757804 -204)" xlink:href="#ygc28_0"/></g><g><path fill="none" stroke="rgb(102,56,0)" d="M 973,-204 L 993,-204 L 993,-64 L 1004.5759993757804,-64" stroke-opacity="1" stroke-width="1" stroke-dasharray="2,2" stroke-dashoffset="1" stroke-linecap="square" stroke-linejoin="miter" stroke-miterlimit="10"/><use transform="matrix(-1 0 0 -1 1010.5759993757804 -64)" xlink:href="#ygc28_0"/><use transform="matrix(0.75 0 0 0.75 973 -204)" xlink:href="#ygc28_2"/></g><g><path fill="none" stroke="rgb(102,56,0)" d="M 803,-344 L 834.5759993757804,-344" stroke-opacity="1" stroke-width="1" stroke-linecap="butt" stroke-linejoin="miter" stroke-miterlimit="10"/><use transform="matrix(-1 0 0 -1 840.5759993757804 -344)" xlink:href="#ygc28_0"/></g><g><path fill="none" stroke="rgb(102,56,0)" d="M 973,-344 L 993,-344 L 993,-484 L 1039.5759993757804,-484" stroke-opacity="1" stroke-width="1" stroke-dasharray="2,2" stroke-dashoffset="1" stroke-linecap="square" stroke-linejoin="miter" stroke-miterlimit="10"/><use transform="matrix(-1 0 0 -1 1045.5759993757804 -484)" xlink:href="#ygc28_0"/><use transform="matrix(0.75 0 0 0.75 973 -344)" xlink:href="#ygc28_3"/></g><g><path fill="none" stroke="rgb(102,56,0)" d="M 1108,-484 L 1174.5759993757804,-484" stroke-opacity="1" stroke-width="1" stroke-linecap="butt" stroke-linejoin="miter" stroke-miterlimit="10"/><use transform="matrix(-1 0 0 -1 1180.5759993757804 -484)" xlink:href="#ygc28_0"/></g><g transform="translate(163 -90)"><path d="M 30,60 C 13.43145750507618,60 0,46.568542494923825 0,30 C 0,13.43145750507618 13.43145750507618,0 30,0 C 46.568542494923825,0 60,13.43145750507618 60,30 C 60,46.568542494923825 46.568542494923825,60 30,60 Z" stroke="rgb(0,128,0)" stroke-opacity="1" stroke-width="1" stroke-linecap="butt" stroke-linejoin="miter" stroke-miterlimit="10" fill="rgb(250,250,250)" fill-opacity="1" transform="translate(0 0)"/></g><g transform="translate(263 -110)"><g transform="translate(0 0)"><rect x="0" y="0" width="130" height="100" rx="6" ry="6" stroke="rgb(0,0,139)" stroke-opacity="1" stroke-width="1" stroke-linecap="butt" stroke-linejoin="miter" stroke-miterlimit="10" fill="rgb(250,250,250)" fill-opacity="1"/><g transform="translate(6 6)"><path d="M 15,15 L 0,15 L 0,10.514999999999999 Q 1.9500000000000002,7.5 4.74,6.6450000000000005 L 5.124121215213201,5.7358787847868005 C 3.8119595949289327,4.423717164502533 3.8119595949289327,2.2962828354974683 5.1241212152132,0.9841212152132005 C 6.436282835497467,-0.3280404050710672 8.563717164502531,-0.3280404050710676 9.8758787847868,0.9841212152131996 C 11.188040405071067,2.296282835497467 11.188040405071067,4.4237171645025315 9.875878784786801,5.7358787847868 L 10.260000000000002,6.6450000000000005 Q 13.05,7.5 15,10.514999999999999 Z" stroke="rgb(0,0,0)" stroke-opacity="1" stroke-width="1" stroke-linecap="round" stroke-linejoin="round" stroke-miterlimit="10" fill="rgb(0,0,0)" fill-opacity="0.16862745098039217" transform="translate(0 0)"/><path d="M 4.305,3.435 C 7.199999999999999,0.7949999999999999 7.800000000000001,3.795 10.695,2.055 C 10.433413965599524,0.8844760671890587 8.664516968862557,-0.29746311871018516 6.8444965180258075,0.0645614578451463 C 5.350844335149672,0.36166734958283275 4.140000000000001,1.837085440900938 4.140000000000001,3.3600000000000003 Z" stroke="rgb(0,0,0)" stroke-opacity="1" stroke-width="1" stroke-linecap="round" stroke-linejoin="round" stroke-miterlimit="10" fill="rgb(0,0,0)" fill-opacity="1" transform="translate(0 0)"/><path d="M 2.85,15 L 2.85,12.239999999999998 M 12.15,15 L 12.15,12.239999999999998 M 4.74,6.6450000000000005 C 4.5,10.08 10.5,10.08 10.260000000000002,6.6450000000000005" stroke="rgb(0,0,0)" stroke-opacity="1" stroke-width="1" stroke-linecap="round" stroke-linejoin="round" stroke-miterlimit="10" fill="rgb(255,255,255)" fill-opacity="0" transform="translate(0 0)"/></g></g></g><g transform="translate(433 -374)"><g transform="translate(0 0)"><path d="M 30,60 C 13.43145750507618,60 0,46.568542494923825 0,30 C 0,13.43145750507618 13.43145750507618,0 30,0 C 46.568542494923825,0 60,13.43145750507618 60,30 C 60,46.568542494923825 46.568542494923825,60 30,60 Z" stroke="rgb(0,128,0)" stroke-opacity="1" stroke-width="1" stroke-linecap="butt" stroke-linejoin="miter" stroke-miterlimit="10" fill="rgb(250,250,250)" fill-opacity="1" transform="translate(0 0)"/><g transform="translate(10.559999999999999 16.114285714285717)"><path d="M 0,0 L 38.879999999999995,0 L 38.879999999999995,27.77142857142857 L 0,27.77142857142857 Z" stroke="rgb(0,0,0)" stroke-opacity="1" stroke-width="1" stroke-linecap="butt" stroke-linejoin="miter" stroke-miterlimit="10" fill="rgb(255,255,255)" fill-opacity="0" transform="translate(0 0)"/><path d="M 0,0 L 19.439999999999998,13.885714285714284 L 38.879999999999995,0" stroke="rgb(0,0,0)" stroke-opacity="1" stroke-width="1" stroke-linecap="butt" stroke-linejoin="miter" stroke-miterlimit="10" fill="rgb(255,255,255)" fill-opacity="0" transform="translate(0 0)"/></g></g></g><g transform="translate(533 -394)"><rect x="0" y="0" width="130" height="100" rx="6" ry="6" stroke="rgb(0,0,139)" stroke-opacity="1" stroke-width="1" stroke-linecap="butt" stroke-linejoin="miter" stroke-miterlimit="10" fill="rgb(250,250,250)" fill-opacity="1"/></g><g transform="translate(703 -394)"><path d="M 50,0 L 100,50 L 50,100 L 0,50 Z" stroke="rgb(255,140,0)" stroke-opacity="1" stroke-width="1" stroke-linecap="butt" stroke-linejoin="miter" stroke-miterlimit="10" fill="rgb(250,250,250)" fill-opacity="1" transform="translate(0 0)"/></g><g transform="translate(1013 -114)"><rect x="0" y="0" width="130" height="100" rx="6" ry="6" stroke="rgb(0,0,139)" stroke-opacity="1" stroke-width="1" stroke-linecap="butt" stroke-linejoin="miter" stroke-miterlimit="10" fill="rgb(250,250,250)" fill-opacity="1"/></g><g transform="translate(843 -254)"><rect x="0" y="0" width="130" height="100" rx="6" ry="6" stroke="rgb(0,0,139)" stroke-opacity="1" stroke-width="1" stroke-linecap="butt" stroke-linejoin="miter" stroke-miterlimit="10" fill="rgb(250,250,250)" fill-opacity="1"/></g><g transform="translate(843 -394)"><rect x="0" y="0" width="130" height="100" rx="6" ry="6" stroke="rgb(0,0,139)" stroke-opacity="1" stroke-width="1" stroke-linecap="butt" stroke-linejoin="miter" stroke-miterlimit="10" fill="rgb(250,250,250)" fill-opacity="1"/></g><g transform="translate(1048 -514)"><g transform="translate(0 0)"><path d="M 30,60 C 13.43145750507618,60 0,46.568542494923825 0,30 C 0,13.43145750507618 13.43145750507618,0 30,0 C 46.568542494923825,0 60,13.43145750507618 60,30 C 60,46.568542494923825 46.568542494923825,60 30,60 Z" stroke="rgb(0,128,0)" stroke-opacity="1" stroke-width="1" stroke-linecap="butt" stroke-linejoin="miter" stroke-miterlimit="10" fill="rgb(250,250,250)" fill-opacity="1" transform="translate(0 0)"/><g transform="translate(10.559999999999999 16.114285714285717)"><path d="M 0,0 L 38.879999999999995,0 L 38.879999999999995,27.77142857142857 L 0,27.77142857142857 Z" stroke="rgb(0,0,0)" stroke-opacity="1" stroke-width="1" stroke-linecap="butt" stroke-linejoin="miter" stroke-miterlimit="10" fill="rgb(255,255,255)" fill-opacity="0" transform="translate(0 0)"/><path d="M 0,0 L 19.439999999999998,13.885714285714284 L 38.879999999999995,0" stroke="rgb(0,0,0)" stroke-opacity="1" stroke-width="1" stroke-linecap="butt" stroke-linejoin="miter" stroke-miterlimit="10" fill="rgb(255,255,255)" fill-opacity="0" transform="translate(0 0)"/></g></g></g><g transform="translate(1183 -534)"><rect x="0" y="0" width="130" height="100" rx="6" ry="6" stroke="rgb(0,0,139)" stroke-opacity="1" stroke-width="1" stroke-linecap="butt" stroke-linejoin="miter" stroke-miterlimit="10" fill="rgb(250,250,250)" fill-opacity="1"/></g><g transform="translate(783.5 -195.25)"><text font-family="Arial" font-size="12px" font-style="normal" font-weight="normal" text-decoration="none" text-anchor="middle" fill="black" dy="0.9166666666666666em" transform="translate(8 0)">No</text></g><g transform="translate(811 -336.5)"><text font-family="Arial" font-size="12px" font-style="normal" font-weight="normal" text-decoration="none" text-anchor="middle" fill="black" dy="0.9166666666666666em" transform="translate(10 0)">Yes</text></g><g transform="translate(10 -67)"><text font-family="Arial" font-size="12px" font-style="normal" font-weight="normal" text-decoration="none" text-anchor="middle" fill="black" dy="0.9166666666666666em" transform="translate(74 0)">User Opens Cameras Page</text></g><g transform="translate(265 -108)"><text font-family="Arial" font-size="12px" font-style="normal" font-weight="normal" text-decoration="none" text-anchor="middle" fill="rgb(0,0,0)" fill-opacity="1" transform="translate(63 33.8)"><tspan x="0" y="11">Enable Flashlight in</tspan><tspan x="0" y="27.4">Camera Settings</tspan></text></g><g transform="translate(255 -393)"><text font-family="Arial" font-size="12px" font-style="normal" font-weight="normal" text-decoration="none" text-anchor="middle" fill="black" dy="0.9166666666666666em" transform="translate(86.5 0)">Receive Camera Setting Update</text></g><g transform="translate(535 -392)"><text font-family="Arial" font-size="12px" font-style="normal" font-weight="normal" text-decoration="none" text-anchor="middle" fill="rgb(0,0,0)" fill-opacity="1" transform="translate(63 33.8)"><tspan x="0" y="11">Check User has</tspan><tspan x="0" y="27.4">Required Permissions</tspan></text></g><g transform="translate(1015 -112)"><text font-family="Arial" font-size="12px" font-style="normal" font-weight="normal" text-decoration="none" text-anchor="middle" fill="rgb(0,0,0)" fill-opacity="1" dy="0.9166666666666666em" transform="translate(63 41)">Display Error to User</text></g><g transform="translate(845 -252)"><text font-family="Arial" font-size="12px" font-style="normal" font-weight="normal" text-decoration="none" text-anchor="middle" fill="rgb(0,0,0)" fill-opacity="1" dy="0.9166666666666666em" transform="translate(63 41)">Send Error</text></g><g transform="translate(845 -392)"><text font-family="Arial" font-size="12px" font-style="normal" font-weight="normal" text-decoration="none" text-anchor="middle" fill="rgb(0,0,0)" fill-opacity="1" transform="translate(63 33.8)"><tspan x="0" y="11">Send Camera Setting</tspan><tspan x="0" y="27.4">Update</tspan></text></g><g transform="translate(870 -533)"><text font-family="Arial" font-size="12px" font-style="normal" font-weight="normal" text-decoration="none" text-anchor="middle" fill="black" dy="0.9166666666666666em" transform="translate(86.5 0)">Receive Camera Setting Update</text></g><g transform="translate(1185 -532)"><text font-family="Arial" font-size="12px" font-style="normal" font-weight="normal" text-decoration="none" text-anchor="middle" fill="rgb(0,0,0)" fill-opacity="1" dy="0.9166666666666666em" transform="translate(63 41)">Enable Flashlight</text></g></g></g></g><defs><path fill="rgb(102,56,0)" stroke="rgb(102,56,0)" d="M 6,-2.25 L 0,0 L 6,2.25 Z" fill-opacity="1" stroke-opacity="1" stroke-width="1" stroke-linecap="butt" stroke-linejoin="miter" stroke-miterlimit="10" id="ygc28_0"/><g id="ygc28_1"><circle fill="#fff" stroke="rgb(102,56,0)" stroke-opacity="1" stroke-width="1" stroke-linecap="butt" stroke-linejoin="miter" stroke-miterlimit="10" cx="15" cy="0" r="5"/><path d="M 10,0 L -2,8 M 10,0 L -2,0 M 10,0 L -2,-8" stroke="rgb(102,56,0)" stroke-opacity="1" stroke-width="1" stroke-linecap="butt" stroke-linejoin="miter" stroke-miterlimit="10"/></g><g id="ygc28_2"><circle fill="#fff" stroke="rgb(102,56,0)" stroke-opacity="1" stroke-width="1" stroke-linecap="butt" stroke-linejoin="miter" stroke-miterlimit="10" cx="15" cy="0" r="5"/><path d="M 10,0 L -2,8 M 10,0 L -2,0 M 10,0 L -2,-8" stroke="rgb(102,56,0)" stroke-opacity="1" stroke-width="1" stroke-linecap="butt" stroke-linejoin="miter" stroke-miterlimit="10"/></g><g id="ygc28_3"><circle fill="#fff" stroke="rgb(102,56,0)" stroke-opacity="1" stroke-width="1" stroke-linecap="butt" stroke-linejoin="miter" stroke-miterlimit="10" cx="15" cy="0" r="5"/><path d="M 10,0 L -2,8 M 10,0 L -2,0 M 10,0 L -2,-8" stroke="rgb(102,56,0)" stroke-opacity="1" stroke-width="1" stroke-linecap="butt" stroke-linejoin="miter" stroke-miterlimit="10"/></g></defs></svg>
