<svg xmlns="http://www.w3.org/2000/svg" width="1538px" height="489px" viewBox="0 0 1538 489" xmlns:xlink="http://www.w3.org/1999/xlink" style="display: block; width: 1538px; height: 489px; overflow: auto;"><rect width="1538px" height="489px" fill="white"/><clipPath id="ygc24_4"><rect x="25" y="25" width="1488" height="439"/></clipPath><g clip-path="url(#ygc24_4)"><g transform="translate(80 449)" image-rendering="auto" shape-rendering="auto" style="pointer-events: visiblepainted;"><g style="box-sizing: initial;"><g><g transform="translate(-50 -419)"><rect fill="rgb(224,224,224)" stroke="rgb(0,0,0)" stroke-opacity="1" stroke-width="1" stroke-linecap="butt" stroke-linejoin="miter" stroke-miterlimit="10" fill-opacity="1" x="0" y="0" width="1478" height="429" rx="0" ry="0"/><g transform="translate(0 0)"><g><g transform="translate(20 0)"><g transform="translate(0 0)"><rect x="0" y="0" width="1458" height="142.5" stroke="none" fill="rgb(196,215,237)" fill-opacity="1"/><rect x="0" y="0" width="20" height="142.5" stroke="none" fill="rgb(224,224,224)" fill-opacity="1"/><rect x="0" y="0" width="1458" height="0" stroke="none" fill="rgb(224,224,224)" fill-opacity="1"/><rect x="1458" y="0" width="0" height="142.5" stroke="none" fill="rgb(224,224,224)" fill-opacity="1"/><rect x="0" y="142.5" width="1458" height="0" stroke="none" fill="rgb(224,224,224)" fill-opacity="1"/><rect x="0" y="0" width="1458" height="142.5" stroke="rgb(0,0,0)" stroke-opacity="1" stroke-width="1" stroke-linecap="butt" stroke-linejoin="miter" stroke-miterlimit="10" fill="none"/></g></g><g transform="matrix(0 -1 1 0 22 140.5)"><text font-family="Arial" font-size="12px" font-style="normal" font-weight="normal" text-decoration="none" text-anchor="middle" fill="rgb(0,0,0)" fill-opacity="1" dy="0.9166666666666666em" transform="translate(69.25 1)">ESP32-CAM</text></g></g><g><g transform="translate(20 142.5)"><g transform="translate(0 0)"><rect x="0" y="0" width="1458" height="146.5" stroke="none" fill="rgb(171,200,226)" fill-opacity="1"/><rect x="0" y="0" width="20" height="146.5" stroke="none" fill="rgb(224,224,224)" fill-opacity="1"/><rect x="0" y="0" width="1458" height="0" stroke="none" fill="rgb(224,224,224)" fill-opacity="1"/><rect x="1458" y="0" width="0" height="146.5" stroke="none" fill="rgb(224,224,224)" fill-opacity="1"/><rect x="0" y="146.5" width="1458" height="0" stroke="none" fill="rgb(224,224,224)" fill-opacity="1"/><rect x="0" y="0" width="1458" height="146.5" stroke="rgb(0,0,0)" stroke-opacity="1" stroke-width="1" stroke-linecap="butt" stroke-linejoin="miter" stroke-miterlimit="10" fill="none"/></g></g><g transform="matrix(0 -1 1 0 22 287)"><text font-family="Arial" font-size="12px" font-style="normal" font-weight="normal" text-decoration="none" text-anchor="middle" fill="rgb(0,0,0)" fill-opacity="1" dy="0.9166666666666666em" transform="translate(71.25 1)">Oko Webserver</text></g></g><g><g transform="translate(20 289)"><g transform="translate(0 0)"><rect x="0" y="0" width="1458" height="140" stroke="none" fill="rgb(196,215,237)" fill-opacity="1"/><rect x="0" y="0" width="20" height="140" stroke="none" fill="rgb(224,224,224)" fill-opacity="1"/><rect x="0" y="0" width="1458" height="0" stroke="none" fill="rgb(224,224,224)" fill-opacity="1"/><rect x="1458" y="0" width="0" height="140" stroke="none" fill="rgb(224,224,224)" fill-opacity="1"/><rect x="0" y="140" width="1458" height="0" stroke="none" fill="rgb(224,224,224)" fill-opacity="1"/><rect x="0" y="0" width="1458" height="140" stroke="rgb(0,0,0)" stroke-opacity="1" stroke-width="1" stroke-linecap="butt" stroke-linejoin="miter" stroke-miterlimit="10" fill="none"/></g></g><g transform="matrix(0 -1 1 0 22 427)"><text font-family="Arial" font-size="12px" font-style="normal" font-weight="normal" text-decoration="none" text-anchor="middle" fill="rgb(0,0,0)" fill-opacity="1" dy="0.9166666666666666em" transform="translate(68 1)">Logged In User</text></g></g><g><g><rect fill="rgb(255,255,255)" stroke="none" fill-opacity="0" x="40" y="0" width="1438" height="429" rx="0" ry="0"/></g></g></g></g></g><g><path fill="none" stroke="rgb(102,56,0)" d="M 785,-60 L 816.5759993757804,-60" stroke-opacity="1" stroke-width="1" stroke-linecap="butt" stroke-linejoin="miter" stroke-miterlimit="10"/><use transform="matrix(-1 0 0 -1 822.5759993757804 -60)" xlink:href="#ygc24_0"/></g><g><path fill="none" stroke="rgb(102,56,0)" d="M 140,-200 L 206.5759993757804,-200" stroke-opacity="1" stroke-width="1" stroke-linecap="butt" stroke-linejoin="miter" stroke-miterlimit="10"/><use transform="matrix(-1 0 0 -1 212.5759993757804 -200)" xlink:href="#ygc24_0"/></g><g><path fill="none" stroke="rgb(102,56,0)" d="M 345,-200 L 376.5759993757804,-200" stroke-opacity="1" stroke-width="1" stroke-linecap="butt" stroke-linejoin="miter" stroke-miterlimit="10"/><use transform="matrix(-1 0 0 -1 382.5759993757804 -200)" xlink:href="#ygc24_0"/></g><g><path fill="none" stroke="rgb(102,56,0)" d="M 175,-349 L 206.5759993757804,-349" stroke-opacity="1" stroke-width="1" stroke-linecap="butt" stroke-linejoin="miter" stroke-miterlimit="10"/><use transform="matrix(-1 0 0 -1 212.5759993757804 -349)" xlink:href="#ygc24_0"/></g><g><path fill="none" stroke="rgb(102,56,0)" d="M 345,-349 L 411.5759993757804,-349" stroke-opacity="1" stroke-width="1" stroke-linecap="butt" stroke-linejoin="miter" stroke-miterlimit="10"/><use transform="matrix(-1 0 0 -1 417.5759993757804 -349)" xlink:href="#ygc24_0"/></g><g><path fill="none" stroke="rgb(102,56,0)" d="M 480,-349 L 546.5759993757804,-349" stroke-opacity="1" stroke-width="1" stroke-linecap="butt" stroke-linejoin="miter" stroke-miterlimit="10"/><use transform="matrix(-1 0 0 -1 552.5759993757804 -349)" xlink:href="#ygc24_0"/></g><g><path fill="none" stroke="rgb(102,56,0)" d="M 615,-349 L 646.5759993757804,-349" stroke-opacity="1" stroke-width="1" stroke-linecap="butt" stroke-linejoin="miter" stroke-miterlimit="10"/><use transform="matrix(-1 0 0 -1 652.5759993757804 -349)" xlink:href="#ygc24_0"/></g><g><path fill="none" stroke="rgb(102,56,0)" d="M 515,-200 L 585,-200 L 585,-310.5759993757804" stroke-opacity="1" stroke-width="1" stroke-dasharray="2,2" stroke-dashoffset="1" stroke-linecap="square" stroke-linejoin="miter" stroke-miterlimit="10"/><use transform="matrix(0 1 -1 0 585 -316.5759993757804)" xlink:href="#ygc24_0"/><use transform="matrix(0.75 0 0 0.75 515 -200)" xlink:href="#ygc24_1"/></g><g><path fill="none" stroke="rgb(102,56,0)" d="M 785,-349 L 805,-349 L 805,-200 L 851.5759993757804,-200" stroke-opacity="1" stroke-width="1" stroke-dasharray="2,2" stroke-dashoffset="1" stroke-linecap="square" stroke-linejoin="miter" stroke-miterlimit="10"/><use transform="matrix(-1 0 0 -1 857.5759993757804 -200)" xlink:href="#ygc24_0"/><use transform="matrix(0.75 0 0 0.75 785 -349)" xlink:href="#ygc24_2"/></g><g><path fill="none" stroke="rgb(102,56,0)" d="M 920,-200 L 986.5759993757804,-200" stroke-opacity="1" stroke-width="1" stroke-linecap="butt" stroke-linejoin="miter" stroke-miterlimit="10"/><use transform="matrix(-1 0 0 -1 992.5759993757804 -200)" xlink:href="#ygc24_0"/></g><g><path fill="none" stroke="rgb(102,56,0)" d="M 1125,-200 L 1195,-200 L 1195,-98.42400062421959" stroke-opacity="1" stroke-width="1" stroke-dasharray="2,2" stroke-dashoffset="1" stroke-linecap="square" stroke-linejoin="miter" stroke-miterlimit="10"/><use transform="matrix(0 -1 1 0 1195 -92.42400062421959)" xlink:href="#ygc24_0"/><use transform="matrix(0.75 0 0 0.75 1125 -200)" xlink:href="#ygc24_3"/></g><g><path fill="none" stroke="rgb(102,56,0)" d="M 1225,-60 L 1276.5759993757804,-60" stroke-opacity="1" stroke-width="1" stroke-linecap="butt" stroke-linejoin="miter" stroke-miterlimit="10"/><use transform="matrix(-1 0 0 -1 1282.5759993757804 -60)" xlink:href="#ygc24_0"/></g><g><path fill="none" stroke="rgb(102,56,0)" d="M 955,-60 L 1021.5759993757804,-60" stroke-opacity="1" stroke-width="1" stroke-linecap="butt" stroke-linejoin="miter" stroke-miterlimit="10"/><use transform="matrix(-1 0 0 -1 1027.5759993757804 -60)" xlink:href="#ygc24_0"/></g><g><path fill="none" stroke="rgb(102,56,0)" d="M 1090,-60 L 1156.5759993757804,-60" stroke-opacity="1" stroke-width="1" stroke-linecap="butt" stroke-linejoin="miter" stroke-miterlimit="10"/><use transform="matrix(-1 0 0 -1 1162.5759993757804 -60)" xlink:href="#ygc24_0"/></g><g transform="translate(825 -110)"><g transform="translate(0 0)"><rect x="0" y="0" width="130" height="100" rx="6" ry="6" stroke="rgb(0,0,139)" stroke-opacity="1" stroke-width="1" stroke-linecap="butt" stroke-linejoin="miter" stroke-miterlimit="10" fill="rgb(250,250,250)" fill-opacity="1"/><path d="M 15,0 C 5.512499999999999,3.75 20.5125,11.25 11.025,15 L 0,15 C 9.4875,11.25 -5.5125,3.75 3.975,0 Z M 2.917499999999999,2.999999999999999 L 9.5325,2.999999999999999 M 3.5174999999999996,6 L 10.1325,6 M 4.8675,9 L 11.482500000000002,9 M 5.4675,12 L 12.0825,12" stroke="rgb(0,0,0)" stroke-opacity="1" stroke-width="1" stroke-linecap="round" stroke-linejoin="round" stroke-miterlimit="10" fill="rgb(255,255,255)" fill-opacity="0" transform="translate(6 6)"/></g></g><g transform="translate(655 -110)"><g transform="translate(0 0)"><rect x="0" y="0" width="130" height="100" rx="6" ry="6" stroke="rgb(0,0,139)" stroke-opacity="1" stroke-width="1" stroke-linecap="butt" stroke-linejoin="miter" stroke-miterlimit="10" fill="rgb(250,250,250)" fill-opacity="1"/><g transform="translate(6 6)"><path d="M 15,15 L 0,15 L 0,10.514999999999999 Q 1.9500000000000002,7.5 4.74,6.6450000000000005 L 5.124121215213201,5.7358787847868005 C 3.8119595949289327,4.423717164502533 3.8119595949289327,2.2962828354974683 5.1241212152132,0.9841212152132005 C 6.436282835497467,-0.3280404050710672 8.563717164502531,-0.3280404050710676 9.8758787847868,0.9841212152131996 C 11.188040405071067,2.296282835497467 11.188040405071067,4.4237171645025315 9.875878784786801,5.7358787847868 L 10.260000000000002,6.6450000000000005 Q 13.05,7.5 15,10.514999999999999 Z" stroke="rgb(0,0,0)" stroke-opacity="1" stroke-width="1" stroke-linecap="round" stroke-linejoin="round" stroke-miterlimit="10" fill="rgb(0,0,0)" fill-opacity="0.16862745098039217" transform="translate(0 0)"/><path d="M 4.305,3.435 C 7.199999999999999,0.7949999999999999 7.800000000000001,3.795 10.695,2.055 C 10.433413965599524,0.8844760671890587 8.664516968862557,-0.29746311871018516 6.8444965180258075,0.0645614578451463 C 5.350844335149672,0.36166734958283275 4.140000000000001,1.837085440900938 4.140000000000001,3.3600000000000003 Z" stroke="rgb(0,0,0)" stroke-opacity="1" stroke-width="1" stroke-linecap="round" stroke-linejoin="round" stroke-miterlimit="10" fill="rgb(0,0,0)" fill-opacity="1" transform="translate(0 0)"/><path d="M 2.85,15 L 2.85,12.239999999999998 M 12.15,15 L 12.15,12.239999999999998 M 4.74,6.6450000000000005 C 4.5,10.08 10.5,10.08 10.260000000000002,6.6450000000000005" stroke="rgb(0,0,0)" stroke-opacity="1" stroke-width="1" stroke-linecap="round" stroke-linejoin="round" stroke-miterlimit="10" fill="rgb(255,255,255)" fill-opacity="0" transform="translate(0 0)"/></g></g></g><g transform="translate(80 -230)"><path d="M 30,60 C 13.43145750507618,60 0,46.568542494923825 0,30 C 0,13.43145750507618 13.43145750507618,0 30,0 C 46.568542494923825,0 60,13.43145750507618 60,30 C 60,46.568542494923825 46.568542494923825,60 30,60 Z" stroke="rgb(0,128,0)" stroke-opacity="1" stroke-width="1" stroke-linecap="butt" stroke-linejoin="miter" stroke-miterlimit="10" fill="rgb(250,250,250)" fill-opacity="1" transform="translate(0 0)"/></g><g transform="translate(385 -250)"><g transform="translate(0 0)"><rect x="0" y="0" width="130" height="100" rx="6" ry="6" stroke="rgb(0,0,139)" stroke-opacity="1" stroke-width="1" stroke-linecap="butt" stroke-linejoin="miter" stroke-miterlimit="10" fill="rgb(250,250,250)" fill-opacity="1"/><g transform="translate(60 85)"><path d="M 2.7300475013022663,9.45503262094184 C 0.26960092475737824,8.201372473070776 -0.7086927688129019,5.1904940778471556 0.5449673790581605,2.7300475013022663 C 1.7986275269292227,0.26960092475737835 4.8095059221528444,-0.7086927688129019 7.269952498697734,0.5449673790581605 C 9.730399075242621,1.798627526929222 10.708692768812902,4.8095059221528444 9.45503262094184,7.269952498697733 C 8.935749585086988,8.289102840197076 7.632921645405618,9.401823019961098 6.545084971874738,9.755282581475768 M 0.23004750130226626,9.95503262094184 L 2.7300475013022663,9.45503262094184 L 2.7300475013022663,6.4550326209418385" stroke="rgb(0,0,0)" stroke-opacity="1" stroke-width="1" stroke-linecap="butt" stroke-linejoin="miter" stroke-miterlimit="10" fill="rgb(255,255,255)" fill-opacity="0" transform="translate(0 0)"/></g></g></g><g transform="translate(215 -250)"><rect x="0" y="0" width="130" height="100" rx="6" ry="6" stroke="rgb(0,0,139)" stroke-opacity="1" stroke-width="1" stroke-linecap="butt" stroke-linejoin="miter" stroke-miterlimit="10" fill="rgb(250,250,250)" fill-opacity="1"/></g><g transform="translate(45 -399)"><rect x="0" y="0" width="130" height="100" rx="6" ry="6" stroke="rgb(0,0,139)" stroke-opacity="1" stroke-width="1" stroke-linecap="butt" stroke-linejoin="miter" stroke-miterlimit="10" fill="rgb(250,250,250)" fill-opacity="1"/></g><g transform="translate(215 -399)"><rect x="0" y="0" width="130" height="100" rx="6" ry="6" stroke="rgb(0,0,139)" stroke-opacity="1" stroke-width="1" stroke-linecap="butt" stroke-linejoin="miter" stroke-miterlimit="10" fill="rgb(250,250,250)" fill-opacity="1"/></g><g transform="translate(420 -379)"><g transform="translate(0 0)"><path d="M 30,60 C 13.43145750507618,60 0,46.568542494923825 0,30 C 0,13.43145750507618 13.43145750507618,0 30,0 C 46.568542494923825,0 60,13.43145750507618 60,30 C 60,46.568542494923825 46.568542494923825,60 30,60 Z" stroke="rgb(0,128,0)" stroke-opacity="1" stroke-width="1" stroke-linecap="butt" stroke-linejoin="miter" stroke-miterlimit="10" fill="rgb(250,250,250)" fill-opacity="1" transform="translate(0 0)"/><g transform="translate(5.699999999999999 5.700000000000003)"><path d="M 24.299999999999997,48.599999999999994 C 10.879480579111704,48.599999999999994 0,37.720519420888294 0,24.299999999999997 C 0,10.879480579111704 10.879480579111704,0 24.299999999999997,0 C 37.720519420888294,0 48.599999999999994,10.879480579111704 48.599999999999994,24.299999999999997 C 48.599999999999994,37.720519420888294 37.720519420888294,48.599999999999994 24.299999999999997,48.599999999999994 Z" stroke="rgb(0,0,0)" stroke-opacity="1" stroke-width="1" stroke-linecap="round" stroke-linejoin="round" stroke-miterlimit="10" fill="rgb(255,255,255)" fill-opacity="0" transform="translate(0 0)"/><path d="M 24.299999999999997,0 L 24.299999999999997,4.8599999999999985 M 36.449999999999996,3.255582688038139 L 34.019999999999996,7.464466150430509 M 45.344417311961855,12.149999999999995 L 41.135533849569484,14.579999999999995 M 48.599999999999994,24.299999999999994 L 43.739999999999995,24.299999999999997 M 45.344417311961855,36.44999999999999 L 41.13553384956949,34.019999999999996 M 36.45000000000001,45.34441731196185 L 34.02,41.13553384956948 M 24.300000000000004,48.599999999999994 L 24.299999999999997,43.739999999999995 M 12.150000000000004,45.344417311961855 L 14.580000000000004,41.13553384956949 M 3.2555826880381473,36.45000000000001 L 7.464466150430517,34.02 M 0,24.300000000000004 L 4.8599999999999985,24.300000000000004 M 3.255582688038131,12.150000000000015 L 7.464466150430503,14.58000000000001 M 12.149999999999988,3.2555826880381473 L 14.57999999999999,7.464466150430517 M 36.449999999999996,25.272 L 24.299999999999997,24.299999999999997 L 29.159999999999997,7.289999999999999" stroke="rgb(0,0,0)" stroke-opacity="1" stroke-width="1" stroke-linecap="round" stroke-linejoin="round" stroke-miterlimit="10" fill="rgb(255,255,255)" fill-opacity="0" transform="translate(0 0)"/></g></g></g><g transform="translate(555 -379)"><g transform="translate(0 0)"><path d="M 30,60 C 13.43145750507618,60 0,46.568542494923825 0,30 C 0,13.43145750507618 13.43145750507618,0 30,0 C 46.568542494923825,0 60,13.43145750507618 60,30 C 60,46.568542494923825 46.568542494923825,60 30,60 Z" stroke="rgb(0,128,0)" stroke-opacity="1" stroke-width="1" stroke-linecap="butt" stroke-linejoin="miter" stroke-miterlimit="10" fill="rgb(250,250,250)" fill-opacity="1" transform="translate(0 0)"/><g transform="translate(10.559999999999999 16.114285714285717)"><path d="M 0,0 L 38.879999999999995,0 L 38.879999999999995,27.77142857142857 L 0,27.77142857142857 Z" stroke="rgb(0,0,0)" stroke-opacity="1" stroke-width="1" stroke-linecap="butt" stroke-linejoin="miter" stroke-miterlimit="10" fill="rgb(255,255,255)" fill-opacity="0" transform="translate(0 0)"/><path d="M 0,0 L 19.439999999999998,13.885714285714284 L 38.879999999999995,0" stroke="rgb(0,0,0)" stroke-opacity="1" stroke-width="1" stroke-linecap="butt" stroke-linejoin="miter" stroke-miterlimit="10" fill="rgb(255,255,255)" fill-opacity="0" transform="translate(0 0)"/></g></g></g><g transform="translate(655 -399)"><rect x="0" y="0" width="130" height="100" rx="6" ry="6" stroke="rgb(0,0,139)" stroke-opacity="1" stroke-width="1" stroke-linecap="butt" stroke-linejoin="miter" stroke-miterlimit="10" fill="rgb(250,250,250)" fill-opacity="1"/></g><g transform="translate(860 -230)"><g transform="translate(0 0)"><path d="M 30,60 C 13.43145750507618,60 0,46.568542494923825 0,30 C 0,13.43145750507618 13.43145750507618,0 30,0 C 46.568542494923825,0 60,13.43145750507618 60,30 C 60,46.568542494923825 46.568542494923825,60 30,60 Z" stroke="rgb(0,128,0)" stroke-opacity="1" stroke-width="1" stroke-linecap="butt" stroke-linejoin="miter" stroke-miterlimit="10" fill="rgb(250,250,250)" fill-opacity="1" transform="translate(0 0)"/><g transform="translate(10.559999999999999 16.114285714285717)"><path d="M 0,0 L 38.879999999999995,0 L 38.879999999999995,27.77142857142857 L 0,27.77142857142857 Z" stroke="rgb(0,0,0)" stroke-opacity="1" stroke-width="1" stroke-linecap="butt" stroke-linejoin="miter" stroke-miterlimit="10" fill="rgb(255,255,255)" fill-opacity="0" transform="translate(0 0)"/><path d="M 0,0 L 19.439999999999998,13.885714285714284 L 38.879999999999995,0" stroke="rgb(0,0,0)" stroke-opacity="1" stroke-width="1" stroke-linecap="butt" stroke-linejoin="miter" stroke-miterlimit="10" fill="rgb(255,255,255)" fill-opacity="0" transform="translate(0 0)"/></g></g></g><g transform="translate(995 -250)"><rect x="0" y="0" width="130" height="100" rx="6" ry="6" stroke="rgb(0,0,139)" stroke-opacity="1" stroke-width="1" stroke-linecap="butt" stroke-linejoin="miter" stroke-miterlimit="10" fill="rgb(250,250,250)" fill-opacity="1"/></g><g transform="translate(1285 -110)"><g transform="translate(0 0)"><rect x="0" y="0" width="130" height="100" rx="6" ry="6" stroke="rgb(0,0,139)" stroke-opacity="1" stroke-width="1" stroke-linecap="butt" stroke-linejoin="miter" stroke-miterlimit="10" fill="rgb(250,250,250)" fill-opacity="1"/><path d="M 15,0 C 5.512499999999999,3.75 20.5125,11.25 11.025,15 L 0,15 C 9.4875,11.25 -5.5125,3.75 3.975,0 Z M 2.917499999999999,2.999999999999999 L 9.5325,2.999999999999999 M 3.5174999999999996,6 L 10.1325,6 M 4.8675,9 L 11.482500000000002,9 M 5.4675,12 L 12.0825,12" stroke="rgb(0,0,0)" stroke-opacity="1" stroke-width="1" stroke-linecap="round" stroke-linejoin="round" stroke-miterlimit="10" fill="rgb(255,255,255)" fill-opacity="0" transform="translate(6 6)"/></g></g><g transform="translate(1165 -90)"><g transform="translate(0 0)"><path d="M 30,60 C 13.43145750507618,60 0,46.568542494923825 0,30 C 0,13.43145750507618 13.43145750507618,0 30,0 C 46.568542494923825,0 60,13.43145750507618 60,30 C 60,46.568542494923825 46.568542494923825,60 30,60 Z" stroke="rgb(0,128,0)" stroke-opacity="1" stroke-width="1" stroke-linecap="butt" stroke-linejoin="miter" stroke-miterlimit="10" fill="rgb(250,250,250)" fill-opacity="1" transform="translate(0 0)"/><g transform="translate(10.559999999999999 16.114285714285717)"><path d="M 0,0 L 38.879999999999995,0 L 38.879999999999995,27.77142857142857 L 0,27.77142857142857 Z" stroke="rgb(0,0,0)" stroke-opacity="1" stroke-width="1" stroke-linecap="butt" stroke-linejoin="miter" stroke-miterlimit="10" fill="rgb(255,255,255)" fill-opacity="0" transform="translate(0 0)"/><path d="M 0,0 L 19.439999999999998,13.885714285714284 L 38.879999999999995,0" stroke="rgb(0,0,0)" stroke-opacity="1" stroke-width="1" stroke-linecap="butt" stroke-linejoin="miter" stroke-miterlimit="10" fill="rgb(255,255,255)" fill-opacity="0" transform="translate(0 0)"/></g></g></g><g transform="translate(1030 -90)"><g transform="translate(0 0)"><path d="M 30,60 C 13.43145750507618,60 0,46.568542494923825 0,30 C 0,13.43145750507618 13.43145750507618,0 30,0 C 46.568542494923825,0 60,13.43145750507618 60,30 C 60,46.568542494923825 46.568542494923825,60 30,60 Z" stroke="rgb(0,128,0)" stroke-opacity="1" stroke-width="1" stroke-linecap="butt" stroke-linejoin="miter" stroke-miterlimit="10" fill="rgb(250,250,250)" fill-opacity="1" transform="translate(0 0)"/><g transform="translate(5.699999999999999 5.700000000000003)"><path d="M 24.299999999999997,48.599999999999994 C 10.879480579111704,48.599999999999994 0,37.720519420888294 0,24.299999999999997 C 0,10.879480579111704 10.879480579111704,0 24.299999999999997,0 C 37.720519420888294,0 48.599999999999994,10.879480579111704 48.599999999999994,24.299999999999997 C 48.599999999999994,37.720519420888294 37.720519420888294,48.599999999999994 24.299999999999997,48.599999999999994 Z" stroke="rgb(0,0,0)" stroke-opacity="1" stroke-width="1" stroke-linecap="round" stroke-linejoin="round" stroke-miterlimit="10" fill="rgb(255,255,255)" fill-opacity="0" transform="translate(0 0)"/><path d="M 24.299999999999997,0 L 24.299999999999997,4.8599999999999985 M 36.449999999999996,3.255582688038139 L 34.019999999999996,7.464466150430509 M 45.344417311961855,12.149999999999995 L 41.135533849569484,14.579999999999995 M 48.599999999999994,24.299999999999994 L 43.739999999999995,24.299999999999997 M 45.344417311961855,36.44999999999999 L 41.13553384956949,34.019999999999996 M 36.45000000000001,45.34441731196185 L 34.02,41.13553384956948 M 24.300000000000004,48.599999999999994 L 24.299999999999997,43.739999999999995 M 12.150000000000004,45.344417311961855 L 14.580000000000004,41.13553384956949 M 3.2555826880381473,36.45000000000001 L 7.464466150430517,34.02 M 0,24.300000000000004 L 4.8599999999999985,24.300000000000004 M 3.255582688038131,12.150000000000015 L 7.464466150430503,14.58000000000001 M 12.149999999999988,3.2555826880381473 L 14.57999999999999,7.464466150430517 M 36.449999999999996,25.272 L 24.299999999999997,24.299999999999997 L 29.159999999999997,7.289999999999999" stroke="rgb(0,0,0)" stroke-opacity="1" stroke-width="1" stroke-linecap="round" stroke-linejoin="round" stroke-miterlimit="10" fill="rgb(255,255,255)" fill-opacity="0" transform="translate(0 0)"/></g></g></g><g transform="translate(827 -108)"><text font-family="Arial" font-size="12px" font-style="normal" font-weight="normal" text-decoration="none" text-anchor="middle" fill="rgb(0,0,0)" fill-opacity="1" transform="translate(63 33.8)"><tspan x="0" y="11">Open SSE connection</tspan><tspan x="0" y="27.4">to mDNS endpoint</tspan></text></g><g transform="translate(657 -108)"><text font-family="Arial" font-size="12px" font-style="normal" font-weight="normal" text-decoration="none" text-anchor="middle" fill="rgb(0,0,0)" fill-opacity="1" dy="0.9166666666666666em" transform="translate(63 41)">Click on "Add Camera"</text></g><g transform="translate(77.5 -165)"><text font-family="Arial" font-size="12px" font-style="normal" font-weight="normal" text-decoration="none" text-anchor="middle" fill="black" dy="0.9166666666666666em" transform="translate(32.5 0)">Oko Started</text></g><g transform="translate(387 -248)"><text font-family="Arial" font-size="12px" font-style="normal" font-weight="normal" text-decoration="none" text-anchor="middle" fill="rgb(0,0,0)" fill-opacity="1" dy="0.9166666666666666em" transform="translate(63 41)">Send mDNS Query</text></g><g transform="translate(217 -248)"><text font-family="Arial" font-size="12px" font-style="normal" font-weight="normal" text-decoration="none" text-anchor="middle" fill="rgb(0,0,0)" fill-opacity="1" dy="0.9166666666666666em" transform="translate(63 41)">mDNS Task Created</text></g><g transform="translate(47 -397)"><text font-family="Arial" font-size="12px" font-style="normal" font-weight="normal" text-decoration="none" text-anchor="middle" fill="rgb(0,0,0)" fill-opacity="1" dy="0.9166666666666666em" transform="translate(63 41)">ESP32-CAM Started</text></g><g transform="translate(217 -397)"><text font-family="Arial" font-size="12px" font-style="normal" font-weight="normal" text-decoration="none" text-anchor="middle" fill="rgb(0,0,0)" fill-opacity="1" dy="0.9166666666666666em" transform="translate(63 41)">mDNS Thread Created</text></g><g transform="translate(392 -314)"><text font-family="Arial" font-size="12px" font-style="normal" font-weight="normal" text-decoration="none" text-anchor="middle" fill="black" dy="0.9166666666666666em" transform="translate(58 0)">Wait for mDNS Query</text></g><g transform="translate(522.5 -398)"><text font-family="Arial" font-size="12px" font-style="normal" font-weight="normal" text-decoration="none" text-anchor="middle" fill="black" dy="0.9166666666666666em" transform="translate(62.5 0)">mDNS Query Received</text></g><g transform="translate(657 -397)"><text font-family="Arial" font-size="12px" font-style="normal" font-weight="normal" text-decoration="none" text-anchor="middle" fill="rgb(0,0,0)" fill-opacity="1" transform="translate(63 33.8)"><tspan x="0" y="11">Respond to mDNS</tspan><tspan x="0" y="27.4">Query</tspan></text></g><g transform="translate(802 -165)"><text font-family="Arial" font-size="12px" font-style="normal" font-weight="normal" text-decoration="none" text-anchor="middle" fill="black" dy="0.9166666666666666em" transform="translate(88 0)">Receive mDNS Query Response</text></g><g transform="translate(997 -248)"><text font-family="Arial" font-size="12px" font-style="normal" font-weight="normal" text-decoration="none" text-anchor="middle" fill="rgb(0,0,0)" fill-opacity="1" transform="translate(63 33.8)"><tspan x="0" y="11">Send Found mDNS</tspan><tspan x="0" y="27.4">Camera</tspan></text></g><g transform="translate(1287 -108)"><text font-family="Arial" font-size="12px" font-style="normal" font-weight="normal" text-decoration="none" text-anchor="middle" fill="rgb(0,0,0)" fill-opacity="1" transform="translate(63 33.8)"><tspan x="0" y="11">Display Found mDNS</tspan><tspan x="0" y="27.4">Camera</tspan></text></g><g transform="translate(1112 -25)"><text font-family="Arial" font-size="12px" font-style="normal" font-weight="normal" text-decoration="none" text-anchor="middle" fill="black" dy="0.9166666666666666em" transform="translate(83 0)">Receive Found mDNS Camera</text></g><g transform="translate(978.5 -109)"><text font-family="Arial" font-size="12px" font-style="normal" font-weight="normal" text-decoration="none" text-anchor="middle" fill="black" dy="0.9166666666666666em" transform="translate(81.5 0)">Wait for Found mDNS Camera</text></g></g></g></g><defs><path fill="rgb(102,56,0)" stroke="rgb(102,56,0)" d="M 6,-2.25 L 0,0 L 6,2.25 Z" fill-opacity="1" stroke-opacity="1" stroke-width="1" stroke-linecap="butt" stroke-linejoin="miter" stroke-miterlimit="10" id="ygc24_0"/><g id="ygc24_1"><circle fill="#fff" stroke="rgb(102,56,0)" stroke-opacity="1" stroke-width="1" stroke-linecap="butt" stroke-linejoin="miter" stroke-miterlimit="10" cx="15" cy="0" r="5"/><path d="M 10,0 L -2,8 M 10,0 L -2,0 M 10,0 L -2,-8" stroke="rgb(102,56,0)" stroke-opacity="1" stroke-width="1" stroke-linecap="butt" stroke-linejoin="miter" stroke-miterlimit="10"/></g><g id="ygc24_2"><circle fill="#fff" stroke="rgb(102,56,0)" stroke-opacity="1" stroke-width="1" stroke-linecap="butt" stroke-linejoin="miter" stroke-miterlimit="10" cx="15" cy="0" r="5"/><path d="M 10,0 L -2,8 M 10,0 L -2,0 M 10,0 L -2,-8" stroke="rgb(102,56,0)" stroke-opacity="1" stroke-width="1" stroke-linecap="butt" stroke-linejoin="miter" stroke-miterlimit="10"/></g><g id="ygc24_3"><circle fill="#fff" stroke="rgb(102,56,0)" stroke-opacity="1" stroke-width="1" stroke-linecap="butt" stroke-linejoin="miter" stroke-miterlimit="10" cx="15" cy="0" r="5"/><path d="M 10,0 L -2,8 M 10,0 L -2,0 M 10,0 L -2,-8" stroke="rgb(102,56,0)" stroke-opacity="1" stroke-width="1" stroke-linecap="butt" stroke-linejoin="miter" stroke-miterlimit="10"/></g></defs></svg>
