<svg xmlns="http://www.w3.org/2000/svg" width="1374px" height="510px" viewBox="0 0 1374 510" xmlns:xlink="http://www.w3.org/1999/xlink" style="display: block; width: 1374px; height: 510px; overflow: auto;"><rect width="1374px" height="510px" fill="white"/><clipPath id="ygc46_13"><rect x="25" y="25" width="1324" height="460"/></clipPath><g clip-path="url(#ygc46_13)"><g transform="translate(20 490)" image-rendering="auto" shape-rendering="auto" style="pointer-events: visiblepainted;"><g style="box-sizing: initial;"><g><path fill="none" stroke="rgb(0,0,0)" d="M 214,-126 L 679,-126 L 679,-141.5759993757804" stroke-opacity="1" stroke-width="1" stroke-linecap="butt" stroke-linejoin="miter" stroke-miterlimit="10"/><use transform="matrix(0 1 -1 0 679 -147.5759993757804)" xlink:href="#ygc46_0"/></g><g><path fill="none" stroke="rgb(0,0,0)" d="M 744,-200 L 775.5759993757804,-200" stroke-opacity="1" stroke-width="1" stroke-linecap="butt" stroke-linejoin="miter" stroke-miterlimit="10"/><use transform="matrix(-1 0 0 -1 781.5759993757804 -200)" xlink:href="#ygc46_1"/></g><g><path fill="none" stroke="rgb(0,0,0)" d="M 834,-150 L 834,-60 L 915.5759993757804,-60" stroke-opacity="1" stroke-width="1" stroke-linecap="butt" stroke-linejoin="miter" stroke-miterlimit="10"/><use transform="matrix(-1 0 0 -1 921.5759993757804 -60)" xlink:href="#ygc46_2"/></g><g><path fill="none" stroke="rgb(0,0,0)" d="M 884,-200 L 915.5759993757804,-200" stroke-opacity="1" stroke-width="1" stroke-linecap="butt" stroke-linejoin="miter" stroke-miterlimit="10"/><use transform="matrix(-1 0 0 -1 921.5759993757804 -200)" xlink:href="#ygc46_3"/></g><g><path fill="none" stroke="rgb(0,0,0)" d="M 1054,-200 L 1124,-200 L 1124,-301.5759993757804" stroke-opacity="1" stroke-width="1" stroke-linecap="butt" stroke-linejoin="miter" stroke-miterlimit="10"/><use transform="matrix(0 1 -1 0 1124 -307.5759993757804)" xlink:href="#ygc46_4"/></g><g><path fill="none" stroke="rgb(0,0,0)" d="M 1194,-410 L 184,-410 L 184,-398.4240006242196" stroke-opacity="1" stroke-width="1" stroke-linecap="butt" stroke-linejoin="miter" stroke-miterlimit="10"/><use transform="matrix(0 -1 1 0 184 -392.4240006242196)" xlink:href="#ygc46_5"/></g><g><path fill="none" stroke="rgb(0,0,0)" d="M 184,-290 L 184,-200 L 265.5759993757804,-200" stroke-opacity="1" stroke-width="1" stroke-linecap="butt" stroke-linejoin="miter" stroke-miterlimit="10"/><use transform="matrix(-1 0 0 -1 271.5759993757804 -200)" xlink:href="#ygc46_6"/></g><g><path fill="none" stroke="rgb(0,0,0)" d="M 1154,-340 L 1259,-340 L 1259,-351.5759993757804" stroke-opacity="1" stroke-width="1" stroke-linecap="butt" stroke-linejoin="miter" stroke-miterlimit="10"/><use transform="matrix(0 1 -1 0 1259 -357.5759993757804)" xlink:href="#ygc46_7"/></g><g><path fill="none" stroke="rgb(0,0,0)" d="M 234,-340 L 915.5759993757804,-340" stroke-opacity="1" stroke-width="1" stroke-linecap="butt" stroke-linejoin="miter" stroke-miterlimit="10"/><use transform="matrix(-1 0 0 -1 921.5759993757804 -340)" xlink:href="#ygc46_8"/></g><g><path fill="none" stroke="rgb(0,0,0)" d="M 1054,-340 L 1085.5759993757804,-340" stroke-opacity="1" stroke-width="1" stroke-linecap="butt" stroke-linejoin="miter" stroke-miterlimit="10"/><use transform="matrix(-1 0 0 -1 1091.5759993757804 -340)" xlink:href="#ygc46_9"/></g><g><path fill="none" stroke="rgb(0,0,0)" d="M 1054,-60 L 1085.5759993757804,-60" stroke-opacity="1" stroke-width="1" stroke-linecap="butt" stroke-linejoin="miter" stroke-miterlimit="10"/><use transform="matrix(-1 0 0 -1 1091.5759993757804 -60)" xlink:href="#ygc46_10"/></g><g><path fill="none" stroke="rgb(0,0,0)" d="M 404,-200 L 435.5759993757804,-200" stroke-opacity="1" stroke-width="1" stroke-linecap="butt" stroke-linejoin="miter" stroke-miterlimit="10"/><use transform="matrix(-1 0 0 -1 441.5759993757804 -200)" xlink:href="#ygc46_11"/></g><g><path fill="none" stroke="rgb(0,0,0)" d="M 574,-200 L 605.5759993757804,-200" stroke-opacity="1" stroke-width="1" stroke-linecap="butt" stroke-linejoin="miter" stroke-miterlimit="10"/><use transform="matrix(-1 0 0 -1 611.5759993757804 -200)" xlink:href="#ygc46_12"/></g><g transform="translate(154 -156)"><path d="M 30,60 C 13.43145750507618,60 0,46.568542494923825 0,30 C 0,13.43145750507618 13.43145750507618,0 30,0 C 46.568542494923825,0 60,13.43145750507618 60,30 C 60,46.568542494923825 46.568542494923825,60 30,60 Z" stroke="rgb(0,128,0)" stroke-opacity="1" stroke-width="1" stroke-linecap="butt" stroke-linejoin="miter" stroke-miterlimit="10" fill="rgb(250,250,250)" fill-opacity="1" transform="translate(0 0)"/></g><g transform="translate(614 -250)"><rect x="0" y="0" width="130" height="100" rx="6" ry="6" stroke="rgb(0,0,139)" stroke-opacity="1" stroke-width="1" stroke-linecap="butt" stroke-linejoin="miter" stroke-miterlimit="10" fill="rgb(250,250,250)" fill-opacity="1"/></g><g transform="translate(784 -250)"><path d="M 50,0 L 100,50 L 50,100 L 0,50 Z" stroke="rgb(255,140,0)" stroke-opacity="1" stroke-width="1" stroke-linecap="butt" stroke-linejoin="miter" stroke-miterlimit="10" fill="rgb(250,250,250)" fill-opacity="1" transform="translate(0 0)"/></g><g transform="translate(924 -110)"><rect x="0" y="0" width="130" height="100" rx="6" ry="6" stroke="rgb(0,0,139)" stroke-opacity="1" stroke-width="1" stroke-linecap="butt" stroke-linejoin="miter" stroke-miterlimit="10" fill="rgb(250,250,250)" fill-opacity="1"/></g><g transform="translate(924 -250)"><rect x="0" y="0" width="130" height="100" rx="6" ry="6" stroke="rgb(0,0,139)" stroke-opacity="1" stroke-width="1" stroke-linecap="butt" stroke-linejoin="miter" stroke-miterlimit="10" fill="rgb(250,250,250)" fill-opacity="1"/></g><g transform="translate(1094 -370)"><g transform="translate(0 0)"><path d="M 30,60 C 13.43145750507618,60 0,46.568542494923825 0,30 C 0,13.43145750507618 13.43145750507618,0 30,0 C 46.568542494923825,0 60,13.43145750507618 60,30 C 60,46.568542494923825 46.568542494923825,60 30,60 Z" stroke="rgb(0,128,0)" stroke-opacity="1" stroke-width="1" stroke-linecap="butt" stroke-linejoin="miter" stroke-miterlimit="10" fill="rgb(250,250,250)" fill-opacity="1" transform="translate(0 0)"/><g transform="translate(5.699999999999999 5.700000000000003)"><path d="M 24.299999999999997,48.599999999999994 C 10.879480579111704,48.599999999999994 0,37.720519420888294 0,24.299999999999997 C 0,10.879480579111704 10.879480579111704,0 24.299999999999997,0 C 37.720519420888294,0 48.599999999999994,10.879480579111704 48.599999999999994,24.299999999999997 C 48.599999999999994,37.720519420888294 37.720519420888294,48.599999999999994 24.299999999999997,48.599999999999994 Z" stroke="rgb(0,0,0)" stroke-opacity="1" stroke-width="1" stroke-linecap="round" stroke-linejoin="round" stroke-miterlimit="10" fill="rgb(255,255,255)" fill-opacity="0" transform="translate(0 0)"/><path d="M 24.299999999999997,0 L 24.299999999999997,4.8599999999999985 M 36.449999999999996,3.255582688038139 L 34.019999999999996,7.464466150430509 M 45.344417311961855,12.149999999999995 L 41.135533849569484,14.579999999999995 M 48.599999999999994,24.299999999999994 L 43.739999999999995,24.299999999999997 M 45.344417311961855,36.44999999999999 L 41.13553384956949,34.019999999999996 M 36.45000000000001,45.34441731196185 L 34.02,41.13553384956948 M 24.300000000000004,48.599999999999994 L 24.299999999999997,43.739999999999995 M 12.150000000000004,45.344417311961855 L 14.580000000000004,41.13553384956949 M 3.2555826880381473,36.45000000000001 L 7.464466150430517,34.02 M 0,24.300000000000004 L 4.8599999999999985,24.300000000000004 M 3.255582688038131,12.150000000000015 L 7.464466150430503,14.58000000000001 M 12.149999999999988,3.2555826880381473 L 14.57999999999999,7.464466150430517 M 36.449999999999996,25.272 L 24.299999999999997,24.299999999999997 L 29.159999999999997,7.289999999999999" stroke="rgb(0,0,0)" stroke-opacity="1" stroke-width="1" stroke-linecap="round" stroke-linejoin="round" stroke-miterlimit="10" fill="rgb(255,255,255)" fill-opacity="0" transform="translate(0 0)"/></g></g></g><g transform="translate(134 -390)"><path d="M 50,0 L 100,50 L 50,100 L 0,50 Z" stroke="rgb(255,140,0)" stroke-opacity="1" stroke-width="1" stroke-linecap="butt" stroke-linejoin="miter" stroke-miterlimit="10" fill="rgb(250,250,250)" fill-opacity="1" transform="translate(0 0)"/></g><g transform="translate(1194 -460)"><rect x="0" y="0" width="130" height="100" rx="6" ry="6" stroke="rgb(0,0,139)" stroke-opacity="1" stroke-width="1" stroke-linecap="butt" stroke-linejoin="miter" stroke-miterlimit="10" fill="rgb(250,250,250)" fill-opacity="1"/></g><g transform="translate(274 -250)"><rect x="0" y="0" width="130" height="100" rx="6" ry="6" stroke="rgb(0,0,139)" stroke-opacity="1" stroke-width="1" stroke-linecap="butt" stroke-linejoin="miter" stroke-miterlimit="10" fill="rgb(250,250,250)" fill-opacity="1"/></g><g transform="translate(924 -390)"><rect x="0" y="0" width="130" height="100" rx="6" ry="6" stroke="rgb(0,0,139)" stroke-opacity="1" stroke-width="1" stroke-linecap="butt" stroke-linejoin="miter" stroke-miterlimit="10" fill="rgb(250,250,250)" fill-opacity="1"/></g><g transform="translate(1094 -90)"><path d="M 30,60 C 13.43145750507618,60 0,46.568542494923825 0,30 C 0,13.43145750507618 13.43145750507618,0 30,0 C 46.568542494923825,0 60,13.43145750507618 60,30 C 60,46.568542494923825 46.568542494923825,60 30,60 Z" stroke="rgb(255,0,0)" stroke-opacity="1" stroke-width="3" stroke-linecap="butt" stroke-linejoin="miter" stroke-miterlimit="10" fill="rgb(250,250,250)" fill-opacity="1" transform="translate(0 0)"/></g><g transform="translate(444 -250)"><rect x="0" y="0" width="130" height="100" rx="6" ry="6" stroke="rgb(0,0,139)" stroke-opacity="1" stroke-width="1" stroke-linecap="butt" stroke-linejoin="miter" stroke-miterlimit="10" fill="rgb(250,250,250)" fill-opacity="1"/></g><g transform="translate(870 -54)"><text font-family="Arial" font-size="12px" font-style="normal" font-weight="normal" text-decoration="none" text-anchor="middle" fill="rgb(0,0,0)" fill-opacity="1" dy="0.9166666666666666em" transform="translate(10 0)">Yes</text></g><g transform="translate(894.5 -191.25)"><text font-family="Arial" font-size="12px" font-style="normal" font-weight="normal" text-decoration="none" text-anchor="middle" fill="rgb(0,0,0)" fill-opacity="1" dy="0.9166666666666666em" transform="translate(8 0)">No</text></g><g transform="translate(219.75 -194)"><text font-family="Arial" font-size="12px" font-style="normal" font-weight="normal" text-decoration="none" text-anchor="middle" fill="rgb(0,0,0)" fill-opacity="1" dy="0.9166666666666666em" transform="translate(10 0)">Yes</text></g><g transform="translate(571 -333)"><text font-family="Arial" font-size="12px" font-style="normal" font-weight="normal" text-decoration="none" text-anchor="middle" fill="rgb(0,0,0)" fill-opacity="1" dy="0.9166666666666666em" transform="translate(8 0)">No</text></g><g transform="translate(10 -133)"><text font-family="Arial" font-size="12px" font-style="normal" font-weight="normal" text-decoration="none" text-anchor="middle" fill="rgb(0,0,0)" fill-opacity="1" dy="0.9166666666666666em" transform="translate(69.5 0)">ESP32-CAM Powered On</text></g><g transform="translate(616 -248)"><text font-family="Arial" font-size="12px" font-style="normal" font-weight="normal" text-decoration="none" text-anchor="middle" fill="rgb(0,0,0)" fill-opacity="1" transform="translate(63 33.8)"><tspan x="0" y="11">Check for Saved Wi-Fi</tspan><tspan x="0" y="27.4">and Oko Details</tspan></text></g><g transform="translate(813.5 -269)"><text font-family="Arial" font-size="12px" font-style="normal" font-weight="normal" text-decoration="none" text-anchor="middle" fill="rgb(0,0,0)" fill-opacity="1" dy="0.9166666666666666em" transform="translate(20.5 0)">Found?</text></g><g transform="translate(926 -108)"><text font-family="Arial" font-size="12px" font-style="normal" font-weight="normal" text-decoration="none" text-anchor="middle" fill="rgb(0,0,0)" fill-opacity="1" dy="0.9166666666666666em" transform="translate(63 41)">Connect to Wi-Fi</text></g><g transform="translate(926 -248)"><text font-family="Arial" font-size="12px" font-style="normal" font-weight="normal" text-decoration="none" text-anchor="middle" fill="rgb(0,0,0)" fill-opacity="1" transform="translate(63 33.8)"><tspan x="0" y="11">Create Wi-Fi Hotspot</tspan><tspan x="0" y="27.4">with Captive Portal</tspan></text></g><g transform="translate(1159 -305)"><text font-family="Arial" font-size="12px" font-style="normal" font-weight="normal" text-decoration="none" text-anchor="middle" fill="rgb(0,0,0)" fill-opacity="1" dy="0.9166666666666666em" transform="translate(73.5 0)">Wait for Details Submission</text></g><g transform="translate(1196 -458)"><text font-family="Arial" font-size="12px" font-style="normal" font-weight="normal" text-decoration="none" text-anchor="middle" fill="rgb(0,0,0)" fill-opacity="1" transform="translate(63 33.8)"><tspan x="0" y="11">Check if Wi-Fi and Oko</tspan><tspan x="0" y="27.4">Details are Valid</tspan></text></g><g transform="translate(276 -248)"><text font-family="Arial" font-size="12px" font-style="normal" font-weight="normal" text-decoration="none" text-anchor="middle" fill="rgb(0,0,0)" fill-opacity="1" transform="translate(63 33.8)"><tspan x="0" y="11">Save Wi-Fi and Oko</tspan><tspan x="0" y="27.4">Details</tspan></text></g><g transform="translate(926 -388)"><text font-family="Arial" font-size="12px" font-style="normal" font-weight="normal" text-decoration="none" text-anchor="middle" fill="rgb(0,0,0)" fill-opacity="1" dy="0.9166666666666666em" transform="translate(63 41)">Return Error to User</text></g><g transform="translate(446 -248)"><text font-family="Arial" font-size="12px" font-style="normal" font-weight="normal" text-decoration="none" text-anchor="middle" fill="rgb(0,0,0)" fill-opacity="1" dy="0.9166666666666666em" transform="translate(63 41)">Restart ESP32-CAM</text></g></g></g></g><defs><path fill="rgb(0,0,0)" stroke="rgb(0,0,0)" d="M 6,-2.25 L 0,0 L 6,2.25 Z" fill-opacity="1" stroke-opacity="1" stroke-width="1" stroke-linecap="butt" stroke-linejoin="miter" stroke-miterlimit="10" id="ygc46_0"/><path fill="rgb(0,0,0)" stroke="rgb(0,0,0)" d="M 6,-2.25 L 0,0 L 6,2.25 Z" fill-opacity="1" stroke-opacity="1" stroke-width="1" stroke-linecap="butt" stroke-linejoin="miter" stroke-miterlimit="10" id="ygc46_1"/><path fill="rgb(0,0,0)" stroke="rgb(0,0,0)" d="M 6,-2.25 L 0,0 L 6,2.25 Z" fill-opacity="1" stroke-opacity="1" stroke-width="1" stroke-linecap="butt" stroke-linejoin="miter" stroke-miterlimit="10" id="ygc46_2"/><path fill="rgb(0,0,0)" stroke="rgb(0,0,0)" d="M 6,-2.25 L 0,0 L 6,2.25 Z" fill-opacity="1" stroke-opacity="1" stroke-width="1" stroke-linecap="butt" stroke-linejoin="miter" stroke-miterlimit="10" id="ygc46_3"/><path fill="rgb(0,0,0)" stroke="rgb(0,0,0)" d="M 6,-2.25 L 0,0 L 6,2.25 Z" fill-opacity="1" stroke-opacity="1" stroke-width="1" stroke-linecap="butt" stroke-linejoin="miter" stroke-miterlimit="10" id="ygc46_4"/><path fill="rgb(0,0,0)" stroke="rgb(0,0,0)" d="M 6,-2.25 L 0,0 L 6,2.25 Z" fill-opacity="1" stroke-opacity="1" stroke-width="1" stroke-linecap="butt" stroke-linejoin="miter" stroke-miterlimit="10" id="ygc46_5"/><path fill="rgb(0,0,0)" stroke="rgb(0,0,0)" d="M 6,-2.25 L 0,0 L 6,2.25 Z" fill-opacity="1" stroke-opacity="1" stroke-width="1" stroke-linecap="butt" stroke-linejoin="miter" stroke-miterlimit="10" id="ygc46_6"/><path fill="rgb(0,0,0)" stroke="rgb(0,0,0)" d="M 6,-2.25 L 0,0 L 6,2.25 Z" fill-opacity="1" stroke-opacity="1" stroke-width="1" stroke-linecap="butt" stroke-linejoin="miter" stroke-miterlimit="10" id="ygc46_7"/><path fill="rgb(0,0,0)" stroke="rgb(0,0,0)" d="M 6,-2.25 L 0,0 L 6,2.25 Z" fill-opacity="1" stroke-opacity="1" stroke-width="1" stroke-linecap="butt" stroke-linejoin="miter" stroke-miterlimit="10" id="ygc46_8"/><path fill="rgb(0,0,0)" stroke="rgb(0,0,0)" d="M 6,-2.25 L 0,0 L 6,2.25 Z" fill-opacity="1" stroke-opacity="1" stroke-width="1" stroke-linecap="butt" stroke-linejoin="miter" stroke-miterlimit="10" id="ygc46_9"/><path fill="rgb(0,0,0)" stroke="rgb(0,0,0)" d="M 6,-2.25 L 0,0 L 6,2.25 Z" fill-opacity="1" stroke-opacity="1" stroke-width="1" stroke-linecap="butt" stroke-linejoin="miter" stroke-miterlimit="10" id="ygc46_10"/><path fill="rgb(0,0,0)" stroke="rgb(0,0,0)" d="M 6,-2.25 L 0,0 L 6,2.25 Z" fill-opacity="1" stroke-opacity="1" stroke-width="1" stroke-linecap="butt" stroke-linejoin="miter" stroke-miterlimit="10" id="ygc46_11"/><path fill="rgb(0,0,0)" stroke="rgb(0,0,0)" d="M 6,-2.25 L 0,0 L 6,2.25 Z" fill-opacity="1" stroke-opacity="1" stroke-width="1" stroke-linecap="butt" stroke-linejoin="miter" stroke-miterlimit="10" id="ygc46_12"/></defs></svg>
