<svg xmlns="http://www.w3.org/2000/svg" width="1284px" height="321px" viewBox="0 0 1284 321" xmlns:xlink="http://www.w3.org/1999/xlink" style="display: block; width: 1284px; height: 321px; overflow: auto;"><rect width="1284px" height="321px" fill="white"/><clipPath id="ygc39_1"><rect x="25" y="25" width="1234" height="271"/></clipPath><g clip-path="url(#ygc39_1)"><g transform="translate(20 290)" image-rendering="auto" shape-rendering="auto" style="pointer-events: visiblepainted;"><g style="box-sizing: initial;"><g><path fill="none" stroke="rgb(102,56,0)" d="M 214,-210 L 245.5759993757804,-210" stroke-opacity="1" stroke-width="1" stroke-linecap="butt" stroke-linejoin="miter" stroke-miterlimit="10"/><use transform="matrix(-1 0 0 -1 251.5759993757804 -210)" xlink:href="#ygc39_0"/></g><g><path fill="none" stroke="rgb(102,56,0)" d="M 384,-210 L 415.5759993757804,-210" stroke-opacity="1" stroke-width="1" stroke-linecap="butt" stroke-linejoin="miter" stroke-miterlimit="10"/><use transform="matrix(-1 0 0 -1 421.5759993757804 -210)" xlink:href="#ygc39_0"/></g><g><path fill="none" stroke="rgb(102,56,0)" d="M 554,-210 L 585.5759993757804,-210" stroke-opacity="1" stroke-width="1" stroke-linecap="butt" stroke-linejoin="miter" stroke-miterlimit="10"/><use transform="matrix(-1 0 0 -1 591.5759993757804 -210)" xlink:href="#ygc39_0"/></g><g><path fill="none" stroke="rgb(102,56,0)" d="M 724,-210 L 829,-210 L 829,-198.4240006242196" stroke-opacity="1" stroke-width="1" stroke-linecap="butt" stroke-linejoin="miter" stroke-miterlimit="10"/><use transform="matrix(0 -1 1 0 829 -192.4240006242196)" xlink:href="#ygc39_0"/></g><g><path fill="none" stroke="rgb(102,56,0)" d="M 894,-140 L 925.5759993757804,-140" stroke-opacity="1" stroke-width="1" stroke-linecap="butt" stroke-linejoin="miter" stroke-miterlimit="10"/><use transform="matrix(-1 0 0 -1 931.5759993757804 -140)" xlink:href="#ygc39_0"/></g><g><path fill="none" stroke="rgb(102,56,0)" d="M 1064,-140 L 1095.5759993757804,-140" stroke-opacity="1" stroke-width="1" stroke-linecap="butt" stroke-linejoin="miter" stroke-miterlimit="10"/><use transform="matrix(-1 0 0 -1 1101.5759993757804 -140)" xlink:href="#ygc39_0"/></g><g><path fill="none" stroke="rgb(102,56,0)" d="M 1169,-90 L 1169,0 L 489,0 L 489,-11.575999375780412" stroke-opacity="1" stroke-width="1" stroke-linecap="butt" stroke-linejoin="miter" stroke-miterlimit="10"/><use transform="matrix(0 1 -1 0 489 -17.575999375780412)" xlink:href="#ygc39_0"/></g><g><path fill="none" stroke="rgb(102,56,0)" d="M 489,-120 L 489,-140 L 755.5759993757804,-140" stroke-opacity="1" stroke-width="1" stroke-linecap="butt" stroke-linejoin="miter" stroke-miterlimit="10"/><use transform="matrix(-1 0 0 -1 761.5759993757804 -140)" xlink:href="#ygc39_0"/></g><g><path fill="none" stroke="rgb(102,56,0)" d="M 539,-70 L 585.5759993757804,-70" stroke-opacity="1" stroke-width="1" stroke-linecap="butt" stroke-linejoin="miter" stroke-miterlimit="10"/><use transform="matrix(-1 0 0 -1 591.5759993757804 -70)" xlink:href="#ygc39_0"/></g><g><path fill="none" stroke="rgb(102,56,0)" d="M 724,-70 L 829,-70 L 829,-81.57599937578041" stroke-opacity="1" stroke-width="1" stroke-linecap="butt" stroke-linejoin="miter" stroke-miterlimit="10"/><use transform="matrix(0 1 -1 0 829 -87.57599937578041)" xlink:href="#ygc39_0"/></g><g transform="translate(154 -240)"><path d="M 30,60 C 13.43145750507618,60 0,46.568542494923825 0,30 C 0,13.43145750507618 13.43145750507618,0 30,0 C 46.568542494923825,0 60,13.43145750507618 60,30 C 60,46.568542494923825 46.568542494923825,60 30,60 Z" stroke="rgb(0,128,0)" stroke-opacity="1" stroke-width="1" stroke-linecap="butt" stroke-linejoin="miter" stroke-miterlimit="10" fill="rgb(250,250,250)" fill-opacity="1" transform="translate(0 0)"/></g><g transform="translate(254 -260)"><rect x="0" y="0" width="130" height="100" rx="6" ry="6" stroke="rgb(0,0,139)" stroke-opacity="1" stroke-width="1" stroke-linecap="butt" stroke-linejoin="miter" stroke-miterlimit="10" fill="rgb(250,250,250)" fill-opacity="1"/></g><g transform="translate(424 -260)"><rect x="0" y="0" width="130" height="100" rx="6" ry="6" stroke="rgb(0,0,139)" stroke-opacity="1" stroke-width="1" stroke-linecap="butt" stroke-linejoin="miter" stroke-miterlimit="10" fill="rgb(250,250,250)" fill-opacity="1"/></g><g transform="translate(594 -260)"><rect x="0" y="0" width="130" height="100" rx="6" ry="6" stroke="rgb(0,0,139)" stroke-opacity="1" stroke-width="1" stroke-linecap="butt" stroke-linejoin="miter" stroke-miterlimit="10" fill="rgb(250,250,250)" fill-opacity="1"/></g><g transform="translate(764 -190)"><rect x="0" y="0" width="130" height="100" rx="6" ry="6" stroke="rgb(0,0,139)" stroke-opacity="1" stroke-width="1" stroke-linecap="butt" stroke-linejoin="miter" stroke-miterlimit="10" fill="rgb(250,250,250)" fill-opacity="1"/></g><g transform="translate(934 -190)"><rect x="0" y="0" width="130" height="100" rx="6" ry="6" stroke="rgb(0,0,139)" stroke-opacity="1" stroke-width="1" stroke-linecap="butt" stroke-linejoin="miter" stroke-miterlimit="10" fill="rgb(250,250,250)" fill-opacity="1"/></g><g transform="translate(1104 -190)"><rect x="0" y="0" width="130" height="100" rx="6" ry="6" stroke="rgb(0,0,139)" stroke-opacity="1" stroke-width="1" stroke-linecap="butt" stroke-linejoin="miter" stroke-miterlimit="10" fill="rgb(250,250,250)" fill-opacity="1"/></g><g transform="translate(439 -120)"><path d="M 50,0 L 100,50 L 50,100 L 0,50 Z" stroke="rgb(255,140,0)" stroke-opacity="1" stroke-width="1" stroke-linecap="butt" stroke-linejoin="miter" stroke-miterlimit="10" fill="rgb(250,250,250)" fill-opacity="1" transform="translate(0 0)"/></g><g transform="translate(594 -120)"><rect x="0" y="0" width="130" height="100" rx="6" ry="6" stroke="rgb(0,0,139)" stroke-opacity="1" stroke-width="1" stroke-linecap="butt" stroke-linejoin="miter" stroke-miterlimit="10" fill="rgb(250,250,250)" fill-opacity="1"/></g><g transform="translate(619.375 -138.25)"><text font-family="Arial" font-size="12px" font-style="normal" font-weight="normal" text-decoration="none" text-anchor="middle" fill="black" dy="0.9166666666666666em" transform="translate(8 0)">No</text></g><g transform="translate(557.375 -64.75)"><text font-family="Arial" font-size="12px" font-style="normal" font-weight="normal" text-decoration="none" text-anchor="middle" fill="black" dy="0.9166666666666666em" transform="translate(10 0)">Yes</text></g><g transform="translate(10 -217)"><text font-family="Arial" font-size="12px" font-style="normal" font-weight="normal" text-decoration="none" text-anchor="middle" fill="black" dy="0.9166666666666666em" transform="translate(69.5 0)">ESP32-CAM Powered On</text></g><g transform="translate(256 -258)"><text font-family="Arial" font-size="12px" font-style="normal" font-weight="normal" text-decoration="none" text-anchor="middle" fill="rgb(0,0,0)" fill-opacity="1" transform="translate(63 33.8)"><tspan x="0" y="11">Connect to Wi-Fi using</tspan><tspan x="0" y="27.4">Saved Details</tspan></text></g><g transform="translate(426 -258)"><text font-family="Arial" font-size="12px" font-style="normal" font-weight="normal" text-decoration="none" text-anchor="middle" fill="rgb(0,0,0)" fill-opacity="1" transform="translate(63 26.6)"><tspan x="0" y="11">Connect to Oko using</tspan><tspan x="0" y="27.4">WebSocket Client and</tspan><tspan x="0" y="41.8">Saved Details</tspan></text></g><g transform="translate(596 -258)"><text font-family="Arial" font-size="12px" font-style="normal" font-weight="normal" text-decoration="none" text-anchor="middle" fill="rgb(0,0,0)" fill-opacity="1" transform="translate(63 26.6)"><tspan x="0" y="11">Send WebSocket</tspan><tspan x="0" y="27.4">Message Identifying as</tspan><tspan x="0" y="41.8">Camera</tspan></text></g><g transform="translate(766 -188)"><text font-family="Arial" font-size="12px" font-style="normal" font-weight="normal" text-decoration="none" text-anchor="middle" fill="rgb(0,0,0)" fill-opacity="1" transform="translate(63 33.8)"><tspan x="0" y="11">Capture Image using</tspan><tspan x="0" y="27.4">Camera</tspan></text></g><g transform="translate(936 -188)"><text font-family="Arial" font-size="12px" font-style="normal" font-weight="normal" text-decoration="none" text-anchor="middle" fill="rgb(0,0,0)" fill-opacity="1" transform="translate(63 33.8)"><tspan x="0" y="11">Send Image to Oko</tspan><tspan x="0" y="27.4">over WebSockets</tspan></text></g><g transform="translate(1106 -188)"><text font-family="Arial" font-size="12px" font-style="normal" font-weight="normal" text-decoration="none" text-anchor="middle" fill="rgb(0,0,0)" fill-opacity="1" transform="translate(63 26.6)"><tspan x="0" y="11">Check if WebSocket</tspan><tspan x="0" y="27.4">Message from Oko has</tspan><tspan x="0" y="41.8">been Received</tspan></text></g><g transform="translate(596 -118)"><text font-family="Arial" font-size="12px" font-style="normal" font-weight="normal" text-decoration="none" text-anchor="middle" fill="rgb(0,0,0)" fill-opacity="1" dy="0.9166666666666666em" transform="translate(63 41)">Handle Message</text></g></g></g></g><defs><path fill="rgb(102,56,0)" stroke="rgb(102,56,0)" d="M 6,-2.25 L 0,0 L 6,2.25 Z" fill-opacity="1" stroke-opacity="1" stroke-width="1" stroke-linecap="butt" stroke-linejoin="miter" stroke-miterlimit="10" id="ygc39_0"/></defs></svg>
