<svg xmlns="http://www.w3.org/2000/svg" width="1767px" height="440px" viewBox="0 0 1767 440" xmlns:xlink="http://www.w3.org/1999/xlink" style="display: block; width: 1767px; height: 440px; overflow: auto;"><rect width="1767px" height="440px" fill="white"/><clipPath id="ygc53_13"><rect x="25" y="25" width="1717" height="390"/></clipPath><g clip-path="url(#ygc53_13)"><g transform="translate(19 420)" image-rendering="auto" shape-rendering="auto" style="pointer-events: visiblepainted;"><g style="box-sizing: initial;"><g><path fill="none" stroke="rgb(0,0,0)" d="M 148,-340 L 183.33102252340043,-340" stroke-opacity="1" stroke-width="1" stroke-linecap="butt" stroke-linejoin="miter" stroke-miterlimit="10"/><use transform="matrix(-1 0 0 -1 186.33102252340043 -340)" xlink:href="#ygc53_0"/></g><g><path fill="none" stroke="rgb(0,0,0)" d="M 488,-340 L 523.3310225234004,-340" stroke-opacity="1" stroke-width="1" stroke-linecap="butt" stroke-linejoin="miter" stroke-miterlimit="10"/><use transform="matrix(-1 0 0 -1 526.3310225234004 -340)" xlink:href="#ygc53_1"/></g><g><path fill="none" stroke="rgb(0,0,0)" d="M 658,-340 L 693.3310225234004,-340" stroke-opacity="1" stroke-width="1" stroke-linecap="butt" stroke-linejoin="miter" stroke-miterlimit="10"/><use transform="matrix(-1 0 0 -1 696.3310225234004 -340)" xlink:href="#ygc53_2"/></g><g><path fill="none" stroke="rgb(0,0,0)" d="M 798,-340 L 833.3310225234004,-340" stroke-opacity="1" stroke-width="1" stroke-linecap="butt" stroke-linejoin="miter" stroke-miterlimit="10"/><use transform="matrix(-1 0 0 -1 836.3310225234004 -340)" xlink:href="#ygc53_3"/></g><g><path fill="none" stroke="rgb(0,0,0)" d="M 968,-340 L 1038.3310225234004,-340" stroke-opacity="1" stroke-width="1" stroke-linecap="butt" stroke-linejoin="miter" stroke-miterlimit="10"/><use transform="matrix(-1 0 0 -1 1041.3310225234004 -340)" xlink:href="#ygc53_4"/></g><g><path fill="none" stroke="rgb(0,0,0)" d="M 748,-290 L 748,-200 L 833.3310225234004,-200" stroke-opacity="1" stroke-width="1" stroke-linecap="butt" stroke-linejoin="miter" stroke-miterlimit="10"/><use transform="matrix(-1 0 0 -1 836.3310225234004 -200)" xlink:href="#ygc53_5"/></g><g><path fill="none" stroke="rgb(0,0,0)" d="M 968,-200 L 1003.3310225234004,-200" stroke-opacity="1" stroke-width="1" stroke-linecap="butt" stroke-linejoin="miter" stroke-miterlimit="10"/><use transform="matrix(-1 0 0 -1 1006.3310225234004 -200)" xlink:href="#ygc53_6"/></g><g><path fill="none" stroke="rgb(0,0,0)" d="M 1138,-200 L 1173.3310225234004,-200" stroke-opacity="1" stroke-width="1" stroke-linecap="butt" stroke-linejoin="miter" stroke-miterlimit="10"/><use transform="matrix(-1 0 0 -1 1176.3310225234004 -200)" xlink:href="#ygc53_7"/></g><g><path fill="none" stroke="rgb(0,0,0)" d="M 1308,-200 L 1343.3310225234004,-200" stroke-opacity="1" stroke-width="1" stroke-linecap="butt" stroke-linejoin="miter" stroke-miterlimit="10"/><use transform="matrix(-1 0 0 -1 1346.3310225234004 -200)" xlink:href="#ygc53_8"/></g><g><path fill="none" stroke="rgb(0,0,0)" d="M 318,-340 L 353.3310225234004,-340" stroke-opacity="1" stroke-width="1" stroke-linecap="butt" stroke-linejoin="miter" stroke-miterlimit="10"/><use transform="matrix(-1 0 0 -1 356.3310225234004 -340)" xlink:href="#ygc53_9"/></g><g><path fill="none" stroke="rgb(0,0,0)" d="M 1448,-200 L 1483.3310225234004,-200" stroke-opacity="1" stroke-width="1" stroke-linecap="butt" stroke-linejoin="miter" stroke-miterlimit="10"/><use transform="matrix(-1 0 0 -1 1486.3310225234004 -200)" xlink:href="#ygc53_10"/></g><g><path fill="none" stroke="rgb(0,0,0)" d="M 1618,-200 L 1653.3310225234004,-200" stroke-opacity="1" stroke-width="1" stroke-linecap="butt" stroke-linejoin="miter" stroke-miterlimit="10"/><use transform="matrix(-1 0 0 -1 1656.3310225234004 -200)" xlink:href="#ygc53_11"/></g><g><path fill="none" stroke="rgb(0,0,0)" d="M 1398,-150 L 1398,-60 L 1483.3310225234004,-60" stroke-opacity="1" stroke-width="1" stroke-linecap="butt" stroke-linejoin="miter" stroke-miterlimit="10"/><use transform="matrix(-1 0 0 -1 1486.3310225234004 -60)" xlink:href="#ygc53_12"/></g><g transform="translate(88 -370)"><path d="M 30,60 C 13.43145750507618,60 0,46.568542494923825 0,30 C 0,13.43145750507618 13.43145750507618,0 30,0 C 46.568542494923825,0 60,13.43145750507618 60,30 C 60,46.568542494923825 46.568542494923825,60 30,60 Z" stroke="rgb(0,128,0)" stroke-opacity="1" stroke-width="1" stroke-linecap="butt" stroke-linejoin="miter" stroke-miterlimit="10" fill="rgb(250,250,250)" fill-opacity="1" transform="translate(0 0)"/></g><g transform="translate(188 -390)"><g transform="translate(0 0)"><rect x="0" y="0" width="130" height="100" rx="6" ry="6" stroke="rgb(0,0,139)" stroke-opacity="1" stroke-width="1" stroke-linecap="butt" stroke-linejoin="miter" stroke-miterlimit="10" fill="rgb(250,250,250)" fill-opacity="1"/><g transform="translate(6 6)"><path d="M 15,15 L 0,15 L 0,10.514999999999999 Q 1.9500000000000002,7.5 4.74,6.6450000000000005 L 5.124121215213201,5.7358787847868005 C 3.8119595949289327,4.423717164502533 3.8119595949289327,2.2962828354974683 5.1241212152132,0.9841212152132005 C 6.436282835497467,-0.3280404050710672 8.563717164502531,-0.3280404050710676 9.8758787847868,0.9841212152131996 C 11.188040405071067,2.296282835497467 11.188040405071067,4.4237171645025315 9.875878784786801,5.7358787847868 L 10.260000000000002,6.6450000000000005 Q 13.05,7.5 15,10.514999999999999 Z" stroke="rgb(0,0,0)" stroke-opacity="1" stroke-width="1" stroke-linecap="round" stroke-linejoin="round" stroke-miterlimit="10" fill="rgb(0,0,0)" fill-opacity="0.16862745098039217" transform="translate(0 0)"/><path d="M 4.305,3.435 C 7.199999999999999,0.7949999999999999 7.800000000000001,3.795 10.695,2.055 C 10.433413965599524,0.8844760671890587 8.664516968862557,-0.29746311871018516 6.8444965180258075,0.0645614578451463 C 5.350844335149672,0.36166734958283275 4.140000000000001,1.837085440900938 4.140000000000001,3.3600000000000003 Z" stroke="rgb(0,0,0)" stroke-opacity="1" stroke-width="1" stroke-linecap="round" stroke-linejoin="round" stroke-miterlimit="10" fill="rgb(0,0,0)" fill-opacity="1" transform="translate(0 0)"/><path d="M 2.85,15 L 2.85,12.239999999999998 M 12.15,15 L 12.15,12.239999999999998 M 4.74,6.6450000000000005 C 4.5,10.08 10.5,10.08 10.260000000000002,6.6450000000000005" stroke="rgb(0,0,0)" stroke-opacity="1" stroke-width="1" stroke-linecap="round" stroke-linejoin="round" stroke-miterlimit="10" fill="rgb(255,255,255)" fill-opacity="0" transform="translate(0 0)"/></g></g></g><g transform="translate(358 -390)"><g transform="translate(0 0)"><rect x="0" y="0" width="130" height="100" rx="6" ry="6" stroke="rgb(0,0,139)" stroke-opacity="1" stroke-width="1" stroke-linecap="butt" stroke-linejoin="miter" stroke-miterlimit="10" fill="rgb(250,250,250)" fill-opacity="1"/><g transform="translate(6 6)"><path d="M 15,15 L 0,15 L 0,10.514999999999999 Q 1.9500000000000002,7.5 4.74,6.6450000000000005 L 5.124121215213201,5.7358787847868005 C 3.8119595949289327,4.423717164502533 3.8119595949289327,2.2962828354974683 5.1241212152132,0.9841212152132005 C 6.436282835497467,-0.3280404050710672 8.563717164502531,-0.3280404050710676 9.8758787847868,0.9841212152131996 C 11.188040405071067,2.296282835497467 11.188040405071067,4.4237171645025315 9.875878784786801,5.7358787847868 L 10.260000000000002,6.6450000000000005 Q 13.05,7.5 15,10.514999999999999 Z" stroke="rgb(0,0,0)" stroke-opacity="1" stroke-width="1" stroke-linecap="round" stroke-linejoin="round" stroke-miterlimit="10" fill="rgb(0,0,0)" fill-opacity="0.16862745098039217" transform="translate(0 0)"/><path d="M 4.305,3.435 C 7.199999999999999,0.7949999999999999 7.800000000000001,3.795 10.695,2.055 C 10.433413965599524,0.8844760671890587 8.664516968862557,-0.29746311871018516 6.8444965180258075,0.0645614578451463 C 5.350844335149672,0.36166734958283275 4.140000000000001,1.837085440900938 4.140000000000001,3.3600000000000003 Z" stroke="rgb(0,0,0)" stroke-opacity="1" stroke-width="1" stroke-linecap="round" stroke-linejoin="round" stroke-miterlimit="10" fill="rgb(0,0,0)" fill-opacity="1" transform="translate(0 0)"/><path d="M 2.85,15 L 2.85,12.239999999999998 M 12.15,15 L 12.15,12.239999999999998 M 4.74,6.6450000000000005 C 4.5,10.08 10.5,10.08 10.260000000000002,6.6450000000000005" stroke="rgb(0,0,0)" stroke-opacity="1" stroke-width="1" stroke-linecap="round" stroke-linejoin="round" stroke-miterlimit="10" fill="rgb(255,255,255)" fill-opacity="0" transform="translate(0 0)"/></g></g></g><g transform="translate(528 -390)"><rect x="0" y="0" width="130" height="100" rx="6" ry="6" stroke="rgb(0,0,139)" stroke-opacity="1" stroke-width="1" stroke-linecap="butt" stroke-linejoin="miter" stroke-miterlimit="10" fill="rgb(250,250,250)" fill-opacity="1"/></g><g transform="translate(698 -390)"><path d="M 50,0 L 100,50 L 50,100 L 0,50 Z" stroke="rgb(255,140,0)" stroke-opacity="1" stroke-width="1" stroke-linecap="butt" stroke-linejoin="miter" stroke-miterlimit="10" fill="rgb(250,250,250)" fill-opacity="1" transform="translate(0 0)"/></g><g transform="translate(838 -390)"><rect x="0" y="0" width="130" height="100" rx="6" ry="6" stroke="rgb(0,0,139)" stroke-opacity="1" stroke-width="1" stroke-linecap="butt" stroke-linejoin="miter" stroke-miterlimit="10" fill="rgb(250,250,250)" fill-opacity="1"/></g><g transform="translate(1043 -370)"><path d="M 30,60 C 13.43145750507618,60 0,46.568542494923825 0,30 C 0,13.43145750507618 13.43145750507618,0 30,0 C 46.568542494923825,0 60,13.43145750507618 60,30 C 60,46.568542494923825 46.568542494923825,60 30,60 Z" stroke="rgb(255,0,0)" stroke-opacity="1" stroke-width="3" stroke-linecap="butt" stroke-linejoin="miter" stroke-miterlimit="10" fill="rgb(250,250,250)" fill-opacity="1" transform="translate(0 0)"/></g><g transform="translate(838 -250)"><rect x="0" y="0" width="130" height="100" rx="6" ry="6" stroke="rgb(0,0,139)" stroke-opacity="1" stroke-width="1" stroke-linecap="butt" stroke-linejoin="miter" stroke-miterlimit="10" fill="rgb(250,250,250)" fill-opacity="1"/></g><g transform="translate(1008 -250)"><g transform="translate(0 0)"><rect x="0" y="0" width="130" height="100" rx="6" ry="6" stroke="rgb(0,0,139)" stroke-opacity="1" stroke-width="1" stroke-linecap="butt" stroke-linejoin="miter" stroke-miterlimit="10" fill="rgb(250,250,250)" fill-opacity="1"/><g transform="translate(6 6)"><path d="M 15,15 L 0,15 L 0,10.514999999999999 Q 1.9500000000000002,7.5 4.74,6.6450000000000005 L 5.124121215213201,5.7358787847868005 C 3.8119595949289327,4.423717164502533 3.8119595949289327,2.2962828354974683 5.1241212152132,0.9841212152132005 C 6.436282835497467,-0.3280404050710672 8.563717164502531,-0.3280404050710676 9.8758787847868,0.9841212152131996 C 11.188040405071067,2.296282835497467 11.188040405071067,4.4237171645025315 9.875878784786801,5.7358787847868 L 10.260000000000002,6.6450000000000005 Q 13.05,7.5 15,10.514999999999999 Z" stroke="rgb(0,0,0)" stroke-opacity="1" stroke-width="1" stroke-linecap="round" stroke-linejoin="round" stroke-miterlimit="10" fill="rgb(0,0,0)" fill-opacity="0.16862745098039217" transform="translate(0 0)"/><path d="M 4.305,3.435 C 7.199999999999999,0.7949999999999999 7.800000000000001,3.795 10.695,2.055 C 10.433413965599524,0.8844760671890587 8.664516968862557,-0.29746311871018516 6.8444965180258075,0.0645614578451463 C 5.350844335149672,0.36166734958283275 4.140000000000001,1.837085440900938 4.140000000000001,3.3600000000000003 Z" stroke="rgb(0,0,0)" stroke-opacity="1" stroke-width="1" stroke-linecap="round" stroke-linejoin="round" stroke-miterlimit="10" fill="rgb(0,0,0)" fill-opacity="1" transform="translate(0 0)"/><path d="M 2.85,15 L 2.85,12.239999999999998 M 12.15,15 L 12.15,12.239999999999998 M 4.74,6.6450000000000005 C 4.5,10.08 10.5,10.08 10.260000000000002,6.6450000000000005" stroke="rgb(0,0,0)" stroke-opacity="1" stroke-width="1" stroke-linecap="round" stroke-linejoin="round" stroke-miterlimit="10" fill="rgb(255,255,255)" fill-opacity="0" transform="translate(0 0)"/></g></g></g><g transform="translate(1178 -250)"><rect x="0" y="0" width="130" height="100" rx="6" ry="6" stroke="rgb(0,0,139)" stroke-opacity="1" stroke-width="1" stroke-linecap="butt" stroke-linejoin="miter" stroke-miterlimit="10" fill="rgb(250,250,250)" fill-opacity="1"/></g><g transform="translate(1348 -250)"><path d="M 50,0 L 100,50 L 50,100 L 0,50 Z" stroke="rgb(255,140,0)" stroke-opacity="1" stroke-width="1" stroke-linecap="butt" stroke-linejoin="miter" stroke-miterlimit="10" fill="rgb(250,250,250)" fill-opacity="1" transform="translate(0 0)"/></g><g transform="translate(1488 -250)"><rect x="0" y="0" width="130" height="100" rx="6" ry="6" stroke="rgb(0,0,139)" stroke-opacity="1" stroke-width="1" stroke-linecap="butt" stroke-linejoin="miter" stroke-miterlimit="10" fill="rgb(250,250,250)" fill-opacity="1"/></g><g transform="translate(1658 -230)"><path d="M 30,60 C 13.43145750507618,60 0,46.568542494923825 0,30 C 0,13.43145750507618 13.43145750507618,0 30,0 C 46.568542494923825,0 60,13.43145750507618 60,30 C 60,46.568542494923825 46.568542494923825,60 30,60 Z" stroke="rgb(255,0,0)" stroke-opacity="1" stroke-width="3" stroke-linecap="butt" stroke-linejoin="miter" stroke-miterlimit="10" fill="rgb(250,250,250)" fill-opacity="1" transform="translate(0 0)"/></g><g transform="translate(1488 -110)"><rect x="0" y="0" width="130" height="100" rx="6" ry="6" stroke="rgb(0,0,139)" stroke-opacity="1" stroke-width="1" stroke-linecap="butt" stroke-linejoin="miter" stroke-miterlimit="10" fill="rgb(250,250,250)" fill-opacity="1"/></g><g transform="translate(810.0459702260428 -331)"><text font-family="Arial" font-size="12px" font-style="normal" font-weight="normal" text-decoration="none" text-anchor="middle" fill="rgb(0,0,0)" fill-opacity="1" dy="0.9166666666666666em" transform="translate(8 0)">No</text></g><g transform="translate(783.0427684874252 -192.1875)"><text font-family="Arial" font-size="12px" font-style="normal" font-weight="normal" text-decoration="none" text-anchor="middle" fill="rgb(0,0,0)" fill-opacity="1" dy="0.9166666666666666em" transform="translate(10 0)">Yes</text></g><g transform="translate(1460.0459702260428 -193.5)"><text font-family="Arial" font-size="12px" font-style="normal" font-weight="normal" text-decoration="none" text-anchor="middle" fill="rgb(0,0,0)" fill-opacity="1" dy="0.9166666666666666em" transform="translate(8 0)">No</text></g><g transform="translate(1433.0427684874253 -54.25)"><text font-family="Arial" font-size="12px" font-style="normal" font-weight="normal" text-decoration="none" text-anchor="middle" fill="rgb(0,0,0)" fill-opacity="1" dy="0.9166666666666666em" transform="translate(10 0)">Yes</text></g><g transform="translate(11 -370)"><text font-family="Arial" font-size="12px" font-style="normal" font-weight="normal" text-decoration="none" text-anchor="middle" fill="rgb(0,0,0)" fill-opacity="1" dy="0.9166666666666666em" transform="translate(36.5 0)">User Signs In</text></g><g transform="translate(188 -390)"><text font-family="Arial" font-size="12px" font-style="normal" font-weight="normal" text-decoration="none" text-anchor="middle" fill="rgb(0,0,0)" fill-opacity="1" transform="translate(65 34)"><tspan x="0" y="11">User Visits Cameras</tspan><tspan x="0" y="31">Page</tspan></text></g><g transform="translate(358 -390)"><text font-family="Arial" font-size="12px" font-style="normal" font-weight="normal" text-decoration="none" text-anchor="middle" fill="rgb(0,0,0)" fill-opacity="1" dy="0.9166666666666666em" transform="translate(65 43)">User Clicks on Camera</text></g><g transform="translate(528 -390)"><text font-family="Arial" font-size="12px" font-style="normal" font-weight="normal" text-decoration="none" text-anchor="middle" fill="rgb(0,0,0)" fill-opacity="1" transform="translate(65 25)"><tspan x="0" y="11">Check if User has</tspan><tspan x="0" y="31">Viewing Permissions for</tspan><tspan x="0" y="49">Camera</tspan></text></g><g transform="translate(838 -390)"><text font-family="Arial" font-size="12px" font-style="normal" font-weight="normal" text-decoration="none" text-anchor="middle" fill="rgb(0,0,0)" fill-opacity="1" dy="0.9166666666666666em" transform="translate(65 43)">Display Error</text></g><g transform="translate(838 -250)"><text font-family="Arial" font-size="12px" font-style="normal" font-weight="normal" text-decoration="none" text-anchor="middle" fill="rgb(0,0,0)" fill-opacity="1" dy="0.9166666666666666em" transform="translate(65 43)">Start Camera Live Feed</text></g><g transform="translate(1008 -250)"><text font-family="Arial" font-size="12px" font-style="normal" font-weight="normal" text-decoration="none" text-anchor="middle" fill="rgb(0,0,0)" fill-opacity="1" transform="translate(65 34)"><tspan x="0" y="11">User Clicks on Camera</tspan><tspan x="0" y="31">Settings</tspan></text></g><g transform="translate(1178 -250)"><text font-family="Arial" font-size="12px" font-style="normal" font-weight="normal" text-decoration="none" text-anchor="middle" fill="rgb(0,0,0)" fill-opacity="1" transform="translate(65 25)"><tspan x="0" y="11">Check if User has</tspan><tspan x="0" y="31">Control Permissions for</tspan><tspan x="0" y="49">Camera</tspan></text></g><g transform="translate(1488 -250)"><text font-family="Arial" font-size="12px" font-style="normal" font-weight="normal" text-decoration="none" text-anchor="middle" fill="rgb(0,0,0)" fill-opacity="1" dy="0.9166666666666666em" transform="translate(65 43)">Display Error</text></g><g transform="translate(1488 -110)"><text font-family="Arial" font-size="12px" font-style="normal" font-weight="normal" text-decoration="none" text-anchor="middle" fill="rgb(0,0,0)" fill-opacity="1" transform="translate(65 34)"><tspan x="0" y="11">Display Camera</tspan><tspan x="0" y="31">Settings</tspan></text></g></g></g></g><defs><path fill="rgb(0,0,0)" stroke="rgb(0,0,0)" d="M 3,-3.375 L 0,0 L 3,3.375 Z" fill-opacity="1" stroke-opacity="1" stroke-width="1" stroke-linecap="butt" stroke-linejoin="miter" stroke-miterlimit="10" id="ygc53_0"/><path fill="rgb(0,0,0)" stroke="rgb(0,0,0)" d="M 3,-3.375 L 0,0 L 3,3.375 Z" fill-opacity="1" stroke-opacity="1" stroke-width="1" stroke-linecap="butt" stroke-linejoin="miter" stroke-miterlimit="10" id="ygc53_1"/><path fill="rgb(0,0,0)" stroke="rgb(0,0,0)" d="M 3,-3.375 L 0,0 L 3,3.375 Z" fill-opacity="1" stroke-opacity="1" stroke-width="1" stroke-linecap="butt" stroke-linejoin="miter" stroke-miterlimit="10" id="ygc53_2"/><path fill="rgb(0,0,0)" stroke="rgb(0,0,0)" d="M 3,-3.375 L 0,0 L 3,3.375 Z" fill-opacity="1" stroke-opacity="1" stroke-width="1" stroke-linecap="butt" stroke-linejoin="miter" stroke-miterlimit="10" id="ygc53_3"/><path fill="rgb(0,0,0)" stroke="rgb(0,0,0)" d="M 3,-3.375 L 0,0 L 3,3.375 Z" fill-opacity="1" stroke-opacity="1" stroke-width="1" stroke-linecap="butt" stroke-linejoin="miter" stroke-miterlimit="10" id="ygc53_4"/><path fill="rgb(0,0,0)" stroke="rgb(0,0,0)" d="M 3,-3.375 L 0,0 L 3,3.375 Z" fill-opacity="1" stroke-opacity="1" stroke-width="1" stroke-linecap="butt" stroke-linejoin="miter" stroke-miterlimit="10" id="ygc53_5"/><path fill="rgb(0,0,0)" stroke="rgb(0,0,0)" d="M 3,-3.375 L 0,0 L 3,3.375 Z" fill-opacity="1" stroke-opacity="1" stroke-width="1" stroke-linecap="butt" stroke-linejoin="miter" stroke-miterlimit="10" id="ygc53_6"/><path fill="rgb(0,0,0)" stroke="rgb(0,0,0)" d="M 3,-3.375 L 0,0 L 3,3.375 Z" fill-opacity="1" stroke-opacity="1" stroke-width="1" stroke-linecap="butt" stroke-linejoin="miter" stroke-miterlimit="10" id="ygc53_7"/><path fill="rgb(0,0,0)" stroke="rgb(0,0,0)" d="M 3,-3.375 L 0,0 L 3,3.375 Z" fill-opacity="1" stroke-opacity="1" stroke-width="1" stroke-linecap="butt" stroke-linejoin="miter" stroke-miterlimit="10" id="ygc53_8"/><path fill="rgb(0,0,0)" stroke="rgb(0,0,0)" d="M 3,-3.375 L 0,0 L 3,3.375 Z" fill-opacity="1" stroke-opacity="1" stroke-width="1" stroke-linecap="butt" stroke-linejoin="miter" stroke-miterlimit="10" id="ygc53_9"/><path fill="rgb(0,0,0)" stroke="rgb(0,0,0)" d="M 3,-3.375 L 0,0 L 3,3.375 Z" fill-opacity="1" stroke-opacity="1" stroke-width="1" stroke-linecap="butt" stroke-linejoin="miter" stroke-miterlimit="10" id="ygc53_10"/><path fill="rgb(0,0,0)" stroke="rgb(0,0,0)" d="M 3,-3.375 L 0,0 L 3,3.375 Z" fill-opacity="1" stroke-opacity="1" stroke-width="1" stroke-linecap="butt" stroke-linejoin="miter" stroke-miterlimit="10" id="ygc53_11"/><path fill="rgb(0,0,0)" stroke="rgb(0,0,0)" d="M 3,-3.375 L 0,0 L 3,3.375 Z" fill-opacity="1" stroke-opacity="1" stroke-width="1" stroke-linecap="butt" stroke-linejoin="miter" stroke-miterlimit="10" id="ygc53_12"/></defs></svg>
