<svg xmlns="http://www.w3.org/2000/svg" width="2970px" height="609px" viewBox="0 0 2970 609" xmlns:xlink="http://www.w3.org/1999/xlink" style="display: block; width: 2970px; height: 609px; overflow: auto;"><rect width="2970px" height="609px" fill="white"/><clipPath id="ygc60_24"><rect x="25" y="25" width="2920" height="559"/></clipPath><g clip-path="url(#ygc60_24)"><g transform="translate(80 569)" image-rendering="auto" shape-rendering="auto" style="pointer-events: visiblepainted;"><g style="box-sizing: initial;"><g><g transform="translate(-50 -539)"><rect fill="rgb(224,224,224)" stroke="rgb(0,0,0)" stroke-opacity="1" stroke-width="1" stroke-linecap="butt" stroke-linejoin="miter" stroke-miterlimit="10" fill-opacity="1" x="0" y="0" width="2910" height="549" rx="0" ry="0"/><g transform="translate(0 0)"><g><g transform="translate(20 20)"><g transform="translate(0 0)"><rect x="0" y="0" width="2890" height="210" stroke="none" fill="rgb(196,215,237)" fill-opacity="1"/><rect x="0" y="0" width="20" height="210" stroke="none" fill="rgb(224,224,224)" fill-opacity="1"/><rect x="0" y="0" width="2890" height="0" stroke="none" fill="rgb(224,224,224)" fill-opacity="1"/><rect x="2890" y="0" width="0" height="210" stroke="none" fill="rgb(224,224,224)" fill-opacity="1"/><rect x="0" y="210" width="2890" height="0" stroke="none" fill="rgb(224,224,224)" fill-opacity="1"/><rect x="0" y="0" width="2890" height="210" stroke="rgb(0,0,0)" stroke-opacity="1" stroke-width="1" stroke-linecap="butt" stroke-linejoin="miter" stroke-miterlimit="10" fill="none"/></g></g><g transform="matrix(0 -1 1 0 22 228)"><text font-family="Arial" font-size="12px" font-style="normal" font-weight="normal" text-decoration="none" text-anchor="middle" fill="rgb(0,0,0)" fill-opacity="1" dy="0.9166666666666666em" transform="translate(103 1)">Recording Task</text></g></g><g><g transform="translate(20 230)"><g transform="translate(0 0)"><rect x="0" y="0" width="2890" height="169" stroke="none" fill="rgb(171,200,226)" fill-opacity="1"/><rect x="0" y="0" width="20" height="169" stroke="none" fill="rgb(224,224,224)" fill-opacity="1"/><rect x="0" y="0" width="2890" height="0" stroke="none" fill="rgb(224,224,224)" fill-opacity="1"/><rect x="2890" y="0" width="0" height="169" stroke="none" fill="rgb(224,224,224)" fill-opacity="1"/><rect x="0" y="169" width="2890" height="0" stroke="none" fill="rgb(224,224,224)" fill-opacity="1"/><rect x="0" y="0" width="2890" height="169" stroke="rgb(0,0,0)" stroke-opacity="1" stroke-width="1" stroke-linecap="butt" stroke-linejoin="miter" stroke-miterlimit="10" fill="none"/></g></g><g transform="matrix(0 -1 1 0 22 397)"><text font-family="Arial" font-size="12px" font-style="normal" font-weight="normal" text-decoration="none" text-anchor="middle" fill="rgb(0,0,0)" fill-opacity="1" dy="0.9166666666666666em" transform="translate(82.5 1)">Receive Task</text></g></g><g><g transform="translate(20 399)"><g transform="translate(0 0)"><rect x="0" y="0" width="2890" height="150" stroke="none" fill="rgb(196,215,237)" fill-opacity="1"/><rect x="0" y="0" width="20" height="150" stroke="none" fill="rgb(224,224,224)" fill-opacity="1"/><rect x="0" y="0" width="2890" height="0" stroke="none" fill="rgb(224,224,224)" fill-opacity="1"/><rect x="2890" y="0" width="0" height="150" stroke="none" fill="rgb(224,224,224)" fill-opacity="1"/><rect x="0" y="150" width="2890" height="0" stroke="none" fill="rgb(224,224,224)" fill-opacity="1"/><rect x="0" y="0" width="2890" height="150" stroke="rgb(0,0,0)" stroke-opacity="1" stroke-width="1" stroke-linecap="butt" stroke-linejoin="miter" stroke-miterlimit="10" fill="none"/></g></g><g transform="matrix(0 -1 1 0 22 547)"><text font-family="Arial" font-size="12px" font-style="normal" font-weight="normal" text-decoration="none" text-anchor="middle" fill="rgb(0,0,0)" fill-opacity="1" dy="0.9166666666666666em" transform="translate(73 1)">WebSocket Task</text></g></g><g/><g/></g></g></g><g><path fill="none" stroke="rgb(0,0,0)" d="M 205,-66 L 259.3310225234004,-66" stroke-opacity="1" stroke-width="1" stroke-linecap="butt" stroke-linejoin="miter" stroke-miterlimit="10"/><use transform="matrix(-1 0 0 -1 262.3310225234004 -66)" xlink:href="#ygc60_0"/></g><g><path fill="none" stroke="rgb(0,0,0)" d="M 394,-66 L 448.3310225234004,-66" stroke-opacity="1" stroke-width="1" stroke-linecap="butt" stroke-linejoin="miter" stroke-miterlimit="10"/><use transform="matrix(-1 0 0 -1 451.3310225234004 -66)" xlink:href="#ygc60_1"/></g><g><path fill="none" stroke="rgb(0,0,0)" d="M 553,-66 L 607.3310225234004,-66" stroke-opacity="1" stroke-width="1" stroke-linecap="butt" stroke-linejoin="miter" stroke-miterlimit="10"/><use transform="matrix(-1 0 0 -1 610.3310225234004 -66)" xlink:href="#ygc60_2"/></g><g><path fill="none" stroke="rgb(0,0,0)" d="M 712,-66 L 732,-66 L 732,-220 L 766.3310225234004,-220" stroke-opacity="1" stroke-width="1" stroke-linecap="butt" stroke-linejoin="miter" stroke-miterlimit="10"/><use transform="matrix(-1 0 0 -1 769.3310225234004 -220)" xlink:href="#ygc60_3"/></g><g><path fill="none" stroke="rgb(0,0,0)" d="M 662,-116 L 662,-379 L 766.3310225234004,-379" stroke-opacity="1" stroke-width="1" stroke-linecap="butt" stroke-linejoin="miter" stroke-miterlimit="10"/><use transform="matrix(-1 0 0 -1 769.3310225234004 -379)" xlink:href="#ygc60_4"/></g><g><path fill="none" stroke="rgb(0,0,0)" d="M 901,-220 L 955.3310225234004,-220" stroke-opacity="1" stroke-width="1" stroke-linecap="butt" stroke-linejoin="miter" stroke-miterlimit="10"/><use transform="matrix(-1 0 0 -1 958.3310225234004 -220)" xlink:href="#ygc60_5"/></g><g><path fill="none" stroke="rgb(0,0,0)" d="M 1090,-220 L 1144.3310225234004,-220" stroke-opacity="1" stroke-width="1" stroke-linecap="butt" stroke-linejoin="miter" stroke-miterlimit="10"/><use transform="matrix(-1 0 0 -1 1147.3310225234004 -220)" xlink:href="#ygc60_6"/></g><g><path fill="none" stroke="rgb(0,0,0)" d="M 1214,-280 L 1214,-299.5 L 1403,-299.5 L 1403,-324.3310225234004" stroke-opacity="1" stroke-width="1" stroke-linecap="butt" stroke-linejoin="miter" stroke-miterlimit="10"/><use transform="matrix(0 1 -1 0 1403 -327.3310225234004)" xlink:href="#ygc60_7"/></g><g><path fill="none" stroke="rgb(0,0,0)" d="M 901,-379 L 955.3310225234004,-379" stroke-opacity="1" stroke-width="1" stroke-linecap="butt" stroke-linejoin="miter" stroke-miterlimit="10"/><use transform="matrix(-1 0 0 -1 958.3310225234004 -379)" xlink:href="#ygc60_8"/></g><g><path fill="none" stroke="rgb(0,0,0)" d="M 1090,-379 L 1144.3310225234004,-379" stroke-opacity="1" stroke-width="1" stroke-linecap="butt" stroke-linejoin="miter" stroke-miterlimit="10"/><use transform="matrix(-1 0 0 -1 1147.3310225234004 -379)" xlink:href="#ygc60_9"/></g><g><path fill="none" stroke="rgb(0,0,0)" d="M 1279,-379 L 1333.3310225234004,-379" stroke-opacity="1" stroke-width="1" stroke-linecap="butt" stroke-linejoin="miter" stroke-miterlimit="10"/><use transform="matrix(-1 0 0 -1 1336.3310225234004 -379)" xlink:href="#ygc60_10"/></g><g><path fill="none" stroke="rgb(0,0,0)" d="M 1403,-429 L 1403,-449 L 1522.3310225234004,-449" stroke-opacity="1" stroke-width="1" stroke-linecap="butt" stroke-linejoin="miter" stroke-miterlimit="10"/><use transform="matrix(-1 0 0 -1 1525.3310225234004 -449)" xlink:href="#ygc60_11"/></g><g><path fill="none" stroke="rgb(0,0,0)" d="M 1657,-449 L 1711.3310225234004,-449" stroke-opacity="1" stroke-width="1" stroke-linecap="butt" stroke-linejoin="miter" stroke-miterlimit="10"/><use transform="matrix(-1 0 0 -1 1714.3310225234004 -449)" xlink:href="#ygc60_12"/></g><g><path fill="none" stroke="rgb(0,0,0)" d="M 2383,-449 L 2437.3310225234004,-449" stroke-opacity="1" stroke-width="1" stroke-linecap="butt" stroke-linejoin="miter" stroke-miterlimit="10"/><use transform="matrix(-1 0 0 -1 2440.3310225234004 -449)" xlink:href="#ygc60_13"/></g><g><path fill="none" stroke="rgb(0,0,0)" d="M 2572,-449 L 2681,-449 L 2681,-124.66897747659957" stroke-opacity="1" stroke-width="1" stroke-linecap="butt" stroke-linejoin="miter" stroke-miterlimit="10"/><use transform="matrix(0 -1 1 0 2681 -121.66897747659957)" xlink:href="#ygc60_14"/></g><g><path fill="none" stroke="rgb(0,0,0)" d="M 2731,-70 L 2785.3310225234004,-70" stroke-opacity="1" stroke-width="1" stroke-linecap="butt" stroke-linejoin="miter" stroke-miterlimit="10"/><use transform="matrix(-1 0 0 -1 2788.3310225234004 -70)" xlink:href="#ygc60_15"/></g><g><path fill="none" stroke="rgb(0,0,0)" d="M 1468,-220 L 1537.3310225234004,-220" stroke-opacity="1" stroke-width="1" stroke-linecap="butt" stroke-linejoin="miter" stroke-miterlimit="10"/><use transform="matrix(-1 0 0 -1 1540.3310225234004 -220)" xlink:href="#ygc60_16"/></g><g><path fill="none" stroke="rgb(0,0,0)" d="M 1279,-220 L 1333.3310225234004,-220" stroke-opacity="1" stroke-width="1" stroke-linecap="butt" stroke-linejoin="miter" stroke-miterlimit="10"/><use transform="matrix(-1 0 0 -1 1336.3310225234004 -220)" xlink:href="#ygc60_17"/></g><g><path fill="none" stroke="rgb(0,0,0)" d="M 1592,-170 L 1592,-150 L 1025,-150 L 1025,-165.33102252340043" stroke-opacity="1" stroke-width="1" stroke-linecap="butt" stroke-linejoin="miter" stroke-miterlimit="10"/><use transform="matrix(0 1 -1 0 1025 -168.33102252340043)" xlink:href="#ygc60_18"/></g><g><path fill="none" stroke="rgb(0,0,0)" d="M 1846,-449 L 1900.3310225234004,-449" stroke-opacity="1" stroke-width="1" stroke-linecap="butt" stroke-linejoin="miter" stroke-miterlimit="10"/><use transform="matrix(-1 0 0 -1 1903.3310225234004 -449)" xlink:href="#ygc60_19"/></g><g><path fill="none" stroke="rgb(0,0,0)" d="M 2035,-449 L 2089.3310225234004,-449" stroke-opacity="1" stroke-width="1" stroke-linecap="butt" stroke-linejoin="miter" stroke-miterlimit="10"/><use transform="matrix(-1 0 0 -1 2092.3310225234004 -449)" xlink:href="#ygc60_20"/></g><g><path fill="none" stroke="rgb(0,0,0)" d="M 2194,-449 L 2248.3310225234004,-449" stroke-opacity="1" stroke-width="1" stroke-linecap="butt" stroke-linejoin="miter" stroke-miterlimit="10"/><use transform="matrix(-1 0 0 -1 2251.3310225234004 -449)" xlink:href="#ygc60_21"/></g><g><path fill="none" stroke="rgb(0,0,0)" d="M 2144,-399 L 2144,-379 L 1472.6689774765996,-379" stroke-opacity="1" stroke-width="1" stroke-linecap="butt" stroke-linejoin="miter" stroke-miterlimit="10"/><use transform="translate(1469.6689774765996 -379)" xlink:href="#ygc60_22"/></g><g><path fill="none" stroke="rgb(0,0,0)" d="M 1642,-220 L 1662,-220 L 1662,0 L 2681,0 L 2681,-15.331022523400428" stroke-opacity="1" stroke-width="1" stroke-linecap="butt" stroke-linejoin="miter" stroke-miterlimit="10"/><use transform="matrix(0 1 -1 0 2681 -18.331022523400428)" xlink:href="#ygc60_23"/></g><g transform="translate(145 -96)"><path d="M 30,60 C 13.43145750507618,60 0,46.568542494923825 0,30 C 0,13.43145750507618 13.43145750507618,0 30,0 C 46.568542494923825,0 60,13.43145750507618 60,30 C 60,46.568542494923825 46.568542494923825,60 30,60 Z" stroke="rgb(0,128,0)" stroke-opacity="1" stroke-width="1" stroke-linecap="butt" stroke-linejoin="miter" stroke-miterlimit="10" fill="rgb(250,250,250)" fill-opacity="1" transform="translate(0 0)"/></g><g transform="translate(264 -116)"><rect x="0" y="0" width="130" height="100" rx="6" ry="6" stroke="rgb(0,0,139)" stroke-opacity="1" stroke-width="1" stroke-linecap="butt" stroke-linejoin="miter" stroke-miterlimit="10" fill="rgb(250,250,250)" fill-opacity="1"/></g><g transform="translate(453 -116)"><path d="M 50,0 L 100,50 L 50,100 L 0,50 Z" stroke="rgb(255,140,0)" stroke-opacity="1" stroke-width="1" stroke-linecap="butt" stroke-linejoin="miter" stroke-miterlimit="10" fill="rgb(250,250,250)" fill-opacity="1" transform="translate(0 0)"/></g><g transform="translate(771 -429)"><rect x="0" y="0" width="130" height="100" rx="6" ry="6" stroke="rgb(0,0,139)" stroke-opacity="1" stroke-width="1" stroke-linecap="butt" stroke-linejoin="miter" stroke-miterlimit="10" fill="rgb(250,250,250)" fill-opacity="1"/></g><g transform="translate(771 -270)"><rect x="0" y="0" width="130" height="100" rx="6" ry="6" stroke="rgb(0,0,139)" stroke-opacity="1" stroke-width="1" stroke-linecap="butt" stroke-linejoin="miter" stroke-miterlimit="10" fill="rgb(250,250,250)" fill-opacity="1"/></g><g transform="translate(612 -116)"><g transform="translate(0 0)"><path d="M 50,0 L 100,50 L 50,100 L 0,50 Z" stroke="rgb(255,140,0)" stroke-opacity="1" stroke-width="1" stroke-linecap="butt" stroke-linejoin="miter" stroke-miterlimit="10" fill="rgb(250,250,250)" fill-opacity="1" transform="translate(0 0)"/><path d="M 6.4848984692814895,25.200000000000003 L 25.2,25.200000000000003 L 25.2,6.48489846928149 L 34.800000000000004,6.48489846928149 L 34.800000000000004,25.200000000000003 L 53.51510153071851,25.200000000000003 L 53.51510153071851,34.80000000000001 L 34.800000000000004,34.80000000000001 L 34.800000000000004,53.51510153071852 L 25.2,53.51510153071852 L 25.2,34.80000000000001 L 6.4848984692814895,34.80000000000001 Z" stroke="rgb(0,0,0)" stroke-opacity="1" stroke-width="1" stroke-linecap="butt" stroke-linejoin="miter" stroke-miterlimit="10" fill="rgb(0,0,0)" fill-opacity="1" transform="translate(19.999999999999996 19.999999999999993)"/></g></g><g transform="translate(960 -270)"><rect x="0" y="0" width="130" height="100" rx="6" ry="6" stroke="rgb(0,0,139)" stroke-opacity="1" stroke-width="1" stroke-linecap="butt" stroke-linejoin="miter" stroke-miterlimit="10" fill="rgb(250,250,250)" fill-opacity="1"/></g><g transform="translate(1149 -270)"><rect x="0" y="0" width="130" height="100" rx="6" ry="6" stroke="rgb(0,0,139)" stroke-opacity="1" stroke-width="1" stroke-linecap="butt" stroke-linejoin="miter" stroke-miterlimit="10" fill="rgb(250,250,250)" fill-opacity="1"/></g><g transform="translate(1338 -429)"><g transform="translate(0 0)"><rect x="0" y="0" width="130" height="100" rx="6" ry="6" stroke="rgb(0,0,139)" stroke-opacity="1" stroke-width="1" stroke-linecap="butt" stroke-linejoin="miter" stroke-miterlimit="10" fill="rgb(250,250,250)" fill-opacity="1"/><g transform="translate(6 8.142857142857142)"><path d="M 0,0 L 15,0 L 15,10.714285714285715 L 0,10.714285714285715 Z" stroke="rgb(0,0,0)" stroke-opacity="1" stroke-width="1" stroke-linecap="butt" stroke-linejoin="miter" stroke-miterlimit="10" fill="rgb(255,255,255)" fill-opacity="0" transform="translate(0 0)"/><path d="M 0,0 L 7.5,5.357142857142858 L 15,0" stroke="rgb(0,0,0)" stroke-opacity="1" stroke-width="1" stroke-linecap="butt" stroke-linejoin="miter" stroke-miterlimit="10" fill="rgb(255,255,255)" fill-opacity="0" transform="translate(0 0)"/></g></g></g><g transform="translate(1149 -429)"><rect x="0" y="0" width="130" height="100" rx="6" ry="6" stroke="rgb(0,0,139)" stroke-opacity="1" stroke-width="1" stroke-linecap="butt" stroke-linejoin="miter" stroke-miterlimit="10" fill="rgb(250,250,250)" fill-opacity="1"/></g><g transform="translate(960 -429)"><rect x="0" y="0" width="130" height="100" rx="6" ry="6" stroke="rgb(0,0,139)" stroke-opacity="1" stroke-width="1" stroke-linecap="butt" stroke-linejoin="miter" stroke-miterlimit="10" fill="rgb(250,250,250)" fill-opacity="1"/></g><g transform="translate(1527 -499)"><rect x="0" y="0" width="130" height="100" rx="6" ry="6" stroke="rgb(0,0,139)" stroke-opacity="1" stroke-width="1" stroke-linecap="butt" stroke-linejoin="miter" stroke-miterlimit="10" fill="rgb(250,250,250)" fill-opacity="1"/></g><g transform="translate(1716 -499)"><rect x="0" y="0" width="130" height="100" rx="6" ry="6" stroke="rgb(0,0,139)" stroke-opacity="1" stroke-width="1" stroke-linecap="butt" stroke-linejoin="miter" stroke-miterlimit="10" fill="rgb(250,250,250)" fill-opacity="1"/></g><g transform="translate(1338 -270)"><rect x="0" y="0" width="130" height="100" rx="6" ry="6" stroke="rgb(0,0,139)" stroke-opacity="1" stroke-width="1" stroke-linecap="butt" stroke-linejoin="miter" stroke-miterlimit="10" fill="rgb(250,250,250)" fill-opacity="1"/></g><g transform="translate(2253 -499)"><g transform="translate(0 0)"><rect x="0" y="0" width="130" height="100" rx="6" ry="6" stroke="rgb(0,0,139)" stroke-opacity="1" stroke-width="1" stroke-linecap="butt" stroke-linejoin="miter" stroke-miterlimit="10" fill="rgb(250,250,250)" fill-opacity="1"/><g transform="translate(6 8.142857142857142)"><path d="M 0,0 L 15,0 L 15,10.714285714285715 L 0,10.714285714285715 Z" stroke="rgb(0,0,0)" stroke-opacity="1" stroke-width="1" stroke-linecap="butt" stroke-linejoin="miter" stroke-miterlimit="10" fill="rgb(255,255,255)" fill-opacity="0" transform="translate(0 0)"/><path d="M 0,0 L 7.5,5.357142857142858 L 15,0" stroke="rgb(0,0,0)" stroke-opacity="1" stroke-width="1" stroke-linecap="butt" stroke-linejoin="miter" stroke-miterlimit="10" fill="rgb(255,255,255)" fill-opacity="0" transform="translate(0 0)"/></g></g></g><g transform="translate(2442 -499)"><rect x="0" y="0" width="130" height="100" rx="6" ry="6" stroke="rgb(0,0,139)" stroke-opacity="1" stroke-width="1" stroke-linecap="butt" stroke-linejoin="miter" stroke-miterlimit="10" fill="rgb(250,250,250)" fill-opacity="1"/></g><g transform="translate(2631 -120)"><g transform="translate(0 0)"><path d="M 50,0 L 100,50 L 50,100 L 0,50 Z" stroke="rgb(255,140,0)" stroke-opacity="1" stroke-width="1" stroke-linecap="butt" stroke-linejoin="miter" stroke-miterlimit="10" fill="rgb(250,250,250)" fill-opacity="1" transform="translate(0 0)"/><path d="M 6.4848984692814895,25.200000000000003 L 25.2,25.200000000000003 L 25.2,6.48489846928149 L 34.800000000000004,6.48489846928149 L 34.800000000000004,25.200000000000003 L 53.51510153071851,25.200000000000003 L 53.51510153071851,34.80000000000001 L 34.800000000000004,34.80000000000001 L 34.800000000000004,53.51510153071852 L 25.2,53.51510153071852 L 25.2,34.80000000000001 L 6.4848984692814895,34.80000000000001 Z" stroke="rgb(0,0,0)" stroke-opacity="1" stroke-width="1" stroke-linecap="butt" stroke-linejoin="miter" stroke-miterlimit="10" fill="rgb(0,0,0)" fill-opacity="1" transform="translate(19.999999999999996 19.999999999999993)"/></g></g><g transform="translate(2790 -100)"><path d="M 30,60 C 13.43145750507618,60 0,46.568542494923825 0,30 C 0,13.43145750507618 13.43145750507618,0 30,0 C 46.568542494923825,0 60,13.43145750507618 60,30 C 60,46.568542494923825 46.568542494923825,60 30,60 Z" stroke="rgb(255,0,0)" stroke-opacity="1" stroke-width="3" stroke-linecap="butt" stroke-linejoin="miter" stroke-miterlimit="10" fill="rgb(250,250,250)" fill-opacity="1" transform="translate(0 0)"/></g><g transform="translate(1542 -270)"><path d="M 50,0 L 100,50 L 50,100 L 0,50 Z" stroke="rgb(255,140,0)" stroke-opacity="1" stroke-width="1" stroke-linecap="butt" stroke-linejoin="miter" stroke-miterlimit="10" fill="rgb(250,250,250)" fill-opacity="1" transform="translate(0 0)"/></g><g transform="translate(1905 -499)"><rect x="0" y="0" width="130" height="100" rx="6" ry="6" stroke="rgb(0,0,139)" stroke-opacity="1" stroke-width="1" stroke-linecap="butt" stroke-linejoin="miter" stroke-miterlimit="10" fill="rgb(250,250,250)" fill-opacity="1"/></g><g transform="translate(2094 -499)"><path d="M 50,0 L 100,50 L 50,100 L 0,50 Z" stroke="rgb(255,140,0)" stroke-opacity="1" stroke-width="1" stroke-linecap="butt" stroke-linejoin="miter" stroke-miterlimit="10" fill="rgb(250,250,250)" fill-opacity="1" transform="translate(0 0)"/></g><g transform="translate(0 0)"><g transform="translate(1204 -280)"><g transform="translate(0 0)"><path d="M 10,20 C 4.47715250169206,20 0,15.522847498307941 0,10 C 0,4.47715250169206 4.47715250169206,0 10,0 C 15.522847498307941,0 20,4.47715250169206 20,10 C 20,15.522847498307941 15.522847498307941,20 10,20 Z" stroke="rgb(0,128,0)" stroke-opacity="1" stroke-width="1" stroke-linecap="butt" stroke-linejoin="miter" stroke-miterlimit="10" fill="rgb(250,250,250)" fill-opacity="1" transform="translate(0 0)"/><g transform="translate(4.959999999999999 6.399999999999999)"><path d="M 0,0 L 10.079999999999998,0 L 10.079999999999998,7.199999999999999 L 0,7.199999999999999 Z" stroke="rgb(0,0,0)" stroke-opacity="1" stroke-width="1" stroke-linecap="butt" stroke-linejoin="miter" stroke-miterlimit="10" fill="rgb(255,255,255)" fill-opacity="0" transform="translate(0 0)"/><path d="M 0,0 L 5.039999999999999,3.5999999999999996 L 10.079999999999998,0" stroke="rgb(0,0,0)" stroke-opacity="1" stroke-width="1" stroke-linecap="butt" stroke-linejoin="miter" stroke-miterlimit="10" fill="rgb(255,255,255)" fill-opacity="0" transform="translate(0 0)"/></g></g></g></g><g transform="translate(558.919058330697 -59.499)"><text font-family="Arial" font-size="12px" font-style="normal" font-weight="normal" text-decoration="none" text-anchor="middle" fill="rgb(0,0,0)" fill-opacity="1" dy="0.9166666666666666em" transform="translate(21.5 0)">Camera</text></g><g transform="matrix(1 1.2246467991473532e-16 -1.2246467991473532e-16 1 1300.265625 -169.50099999999998)"><text font-family="Arial" font-size="12px" font-style="normal" font-weight="normal" text-decoration="none" text-anchor="middle" fill="rgb(0,0,0)" fill-opacity="1" dy="0.9166666666666666em" transform="translate(8 0)">No</text></g><g transform="translate(2213.544058330697 -443.499)"><text font-family="Arial" font-size="12px" font-style="normal" font-weight="normal" text-decoration="none" text-anchor="middle" fill="rgb(0,0,0)" fill-opacity="1" dy="0.9166666666666666em" transform="translate(10 0)">Yes</text></g><g transform="matrix(1 1.2246467991473532e-16 -1.2246467991473532e-16 1 1797.9592020664295 -372.4989999999998)"><text font-family="Arial" font-size="12px" font-style="normal" font-weight="normal" text-decoration="none" text-anchor="middle" fill="rgb(0,0,0)" fill-opacity="1" dy="0.9166666666666666em" transform="translate(8 0)">No</text></g><g transform="translate(2160.5 -17.750000000000004)"><text font-family="Arial" font-size="12px" font-style="normal" font-weight="normal" text-decoration="none" text-anchor="middle" fill="rgb(0,0,0)" fill-opacity="1" dy="0.9166666666666666em" transform="translate(10 0)">Yes</text></g><g transform="matrix(0 -1 1 0 -47 -252)"><text font-family="Arial" font-size="12px" font-style="normal" font-weight="normal" text-decoration="none" text-anchor="start" fill="rgb(0,0,0)" fill-opacity="1" dy="0.9166666666666666em" transform="translate(0 0)">Pool</text></g><g transform="translate(771 -429)"><text font-family="Arial" font-size="12px" font-style="normal" font-weight="normal" text-decoration="none" text-anchor="middle" fill="rgb(0,0,0)" fill-opacity="1" dy="0.9166666666666666em" transform="translate(65 43)">Start Recording Task</text></g><g transform="translate(1338 -429)"><text font-family="Arial" font-size="12px" font-style="normal" font-weight="normal" text-decoration="none" text-anchor="middle" fill="rgb(0,0,0)" fill-opacity="1" transform="translate(65 34)"><tspan x="0" y="11">Receive Image from</tspan><tspan x="0" y="31">Channel</tspan></text></g><g transform="translate(1149 -429)"><text font-family="Arial" font-size="12px" font-style="normal" font-weight="normal" text-decoration="none" text-anchor="middle" fill="rgb(0,0,0)" fill-opacity="1" transform="translate(65 34)"><tspan x="0" y="11">Add Video Details to</tspan><tspan x="0" y="31">Database</tspan></text></g><g transform="translate(960 -429)"><text font-family="Arial" font-size="12px" font-style="normal" font-weight="normal" text-decoration="none" text-anchor="middle" fill="rgb(0,0,0)" fill-opacity="1" dy="0.9166666666666666em" transform="translate(65 43)">Create Video File</text></g><g transform="translate(1527 -499)"><text font-family="Arial" font-size="12px" font-style="normal" font-weight="normal" text-decoration="none" text-anchor="middle" fill="rgb(0,0,0)" fill-opacity="1" dy="0.9166666666666666em" transform="translate(65 43)">Decode Image</text></g><g transform="translate(1716 -499)"><text font-family="Arial" font-size="12px" font-style="normal" font-weight="normal" text-decoration="none" text-anchor="middle" fill="rgb(0,0,0)" fill-opacity="1" dy="0.9166666666666666em" transform="translate(65 43)">Add Image to Video File</text></g><g transform="translate(771 -270)"><text font-family="Arial" font-size="12px" font-style="normal" font-weight="normal" text-decoration="none" text-anchor="middle" fill="rgb(0,0,0)" fill-opacity="1" dy="0.9166666666666666em" transform="translate(65 43)">Start Receive Task</text></g><g transform="translate(960 -270)"><text font-family="Arial" font-size="12px" font-style="normal" font-weight="normal" text-decoration="none" text-anchor="middle" fill="rgb(0,0,0)" fill-opacity="1" transform="translate(65 34)"><tspan x="0" y="11">Receive Image from</tspan><tspan x="0" y="31">Camera</tspan></text></g><g transform="translate(1149 -270)"><text font-family="Arial" font-size="12px" font-style="normal" font-weight="normal" text-decoration="none" text-anchor="middle" fill="rgb(0,0,0)" fill-opacity="1" dy="0.9166666666666666em" transform="translate(65 43)">Send Image to Channel</text></g><g transform="translate(1338 -270)"><text font-family="Arial" font-size="12px" font-style="normal" font-weight="normal" text-decoration="none" text-anchor="middle" fill="rgb(0,0,0)" fill-opacity="1" transform="translate(65 34)"><tspan x="0" y="11">Check if the Camera</tspan><tspan x="0" y="31">Closed the Connection</tspan></text></g><g transform="translate(11 -96)"><text font-family="Arial" font-size="12px" font-style="normal" font-weight="normal" text-decoration="none" text-anchor="middle" fill="rgb(0,0,0)" fill-opacity="1" dy="0.9166666666666666em" transform="translate(65 0)">WS Connection Opened</text></g><g transform="translate(264 -116)"><text font-family="Arial" font-size="12px" font-style="normal" font-weight="normal" text-decoration="none" text-anchor="middle" fill="rgb(0,0,0)" fill-opacity="1" transform="translate(65 25)"><tspan x="0" y="11">Check if connection</tspan><tspan x="0" y="31">belongs to User or</tspan><tspan x="0" y="49">Camera</tspan></text></g><g transform="translate(2253 -499)"><text font-family="Arial" font-size="12px" font-style="normal" font-weight="normal" text-decoration="none" text-anchor="middle" fill="rgb(0,0,0)" fill-opacity="1" dy="0.9166666666666666em" transform="translate(65 43)">Finalize Video</text></g><g transform="translate(2442 -499)"><text font-family="Arial" font-size="12px" font-style="normal" font-weight="normal" text-decoration="none" text-anchor="middle" fill="rgb(0,0,0)" fill-opacity="1" transform="translate(65 34)"><tspan x="0" y="11">Update DB Entry with</tspan><tspan x="0" y="31">Details</tspan></text></g><g transform="translate(1905 -499)"><text font-family="Arial" font-size="12px" font-style="normal" font-weight="normal" text-decoration="none" text-anchor="middle" fill="rgb(0,0,0)" fill-opacity="1" transform="translate(65 34)"><tspan x="0" y="11">Check if the Camera</tspan><tspan x="0" y="31">Closed the Connection</tspan></text></g></g></g></g><defs><path fill="rgb(0,0,0)" stroke="rgb(0,0,0)" d="M 3,-3.375 L 0,0 L 3,3.375 Z" fill-opacity="1" stroke-opacity="1" stroke-width="1" stroke-linecap="butt" stroke-linejoin="miter" stroke-miterlimit="10" id="ygc60_0"/><path fill="rgb(0,0,0)" stroke="rgb(0,0,0)" d="M 3,-3.375 L 0,0 L 3,3.375 Z" fill-opacity="1" stroke-opacity="1" stroke-width="1" stroke-linecap="butt" stroke-linejoin="miter" stroke-miterlimit="10" id="ygc60_1"/><path fill="rgb(0,0,0)" stroke="rgb(0,0,0)" d="M 3,-3.375 L 0,0 L 3,3.375 Z" fill-opacity="1" stroke-opacity="1" stroke-width="1" stroke-linecap="butt" stroke-linejoin="miter" stroke-miterlimit="10" id="ygc60_2"/><path fill="rgb(0,0,0)" stroke="rgb(0,0,0)" d="M 3,-3.375 L 0,0 L 3,3.375 Z" fill-opacity="1" stroke-opacity="1" stroke-width="1" stroke-linecap="butt" stroke-linejoin="miter" stroke-miterlimit="10" id="ygc60_3"/><path fill="rgb(0,0,0)" stroke="rgb(0,0,0)" d="M 3,-3.375 L 0,0 L 3,3.375 Z" fill-opacity="1" stroke-opacity="1" stroke-width="1" stroke-linecap="butt" stroke-linejoin="miter" stroke-miterlimit="10" id="ygc60_4"/><path fill="rgb(0,0,0)" stroke="rgb(0,0,0)" d="M 3,-3.375 L 0,0 L 3,3.375 Z" fill-opacity="1" stroke-opacity="1" stroke-width="1" stroke-linecap="butt" stroke-linejoin="miter" stroke-miterlimit="10" id="ygc60_5"/><path fill="rgb(0,0,0)" stroke="rgb(0,0,0)" d="M 3,-3.375 L 0,0 L 3,3.375 Z" fill-opacity="1" stroke-opacity="1" stroke-width="1" stroke-linecap="butt" stroke-linejoin="miter" stroke-miterlimit="10" id="ygc60_6"/><path fill="rgb(0,0,0)" stroke="rgb(0,0,0)" d="M 3,-3.375 L 0,0 L 3,3.375 Z" fill-opacity="1" stroke-opacity="1" stroke-width="1" stroke-linecap="butt" stroke-linejoin="miter" stroke-miterlimit="10" id="ygc60_7"/><path fill="rgb(0,0,0)" stroke="rgb(0,0,0)" d="M 3,-3.375 L 0,0 L 3,3.375 Z" fill-opacity="1" stroke-opacity="1" stroke-width="1" stroke-linecap="butt" stroke-linejoin="miter" stroke-miterlimit="10" id="ygc60_8"/><path fill="rgb(0,0,0)" stroke="rgb(0,0,0)" d="M 3,-3.375 L 0,0 L 3,3.375 Z" fill-opacity="1" stroke-opacity="1" stroke-width="1" stroke-linecap="butt" stroke-linejoin="miter" stroke-miterlimit="10" id="ygc60_9"/><path fill="rgb(0,0,0)" stroke="rgb(0,0,0)" d="M 3,-3.375 L 0,0 L 3,3.375 Z" fill-opacity="1" stroke-opacity="1" stroke-width="1" stroke-linecap="butt" stroke-linejoin="miter" stroke-miterlimit="10" id="ygc60_10"/><path fill="rgb(0,0,0)" stroke="rgb(0,0,0)" d="M 3,-3.375 L 0,0 L 3,3.375 Z" fill-opacity="1" stroke-opacity="1" stroke-width="1" stroke-linecap="butt" stroke-linejoin="miter" stroke-miterlimit="10" id="ygc60_11"/><path fill="rgb(0,0,0)" stroke="rgb(0,0,0)" d="M 3,-3.375 L 0,0 L 3,3.375 Z" fill-opacity="1" stroke-opacity="1" stroke-width="1" stroke-linecap="butt" stroke-linejoin="miter" stroke-miterlimit="10" id="ygc60_12"/><path fill="rgb(0,0,0)" stroke="rgb(0,0,0)" d="M 3,-3.375 L 0,0 L 3,3.375 Z" fill-opacity="1" stroke-opacity="1" stroke-width="1" stroke-linecap="butt" stroke-linejoin="miter" stroke-miterlimit="10" id="ygc60_13"/><path fill="rgb(0,0,0)" stroke="rgb(0,0,0)" d="M 3,-3.375 L 0,0 L 3,3.375 Z" fill-opacity="1" stroke-opacity="1" stroke-width="1" stroke-linecap="butt" stroke-linejoin="miter" stroke-miterlimit="10" id="ygc60_14"/><path fill="rgb(0,0,0)" stroke="rgb(0,0,0)" d="M 3,-3.375 L 0,0 L 3,3.375 Z" fill-opacity="1" stroke-opacity="1" stroke-width="1" stroke-linecap="butt" stroke-linejoin="miter" stroke-miterlimit="10" id="ygc60_15"/><path fill="rgb(0,0,0)" stroke="rgb(0,0,0)" d="M 3,-3.375 L 0,0 L 3,3.375 Z" fill-opacity="1" stroke-opacity="1" stroke-width="1" stroke-linecap="butt" stroke-linejoin="miter" stroke-miterlimit="10" id="ygc60_16"/><path fill="rgb(0,0,0)" stroke="rgb(0,0,0)" d="M 3,-3.375 L 0,0 L 3,3.375 Z" fill-opacity="1" stroke-opacity="1" stroke-width="1" stroke-linecap="butt" stroke-linejoin="miter" stroke-miterlimit="10" id="ygc60_17"/><path fill="rgb(0,0,0)" stroke="rgb(0,0,0)" d="M 3,-3.375 L 0,0 L 3,3.375 Z" fill-opacity="1" stroke-opacity="1" stroke-width="1" stroke-linecap="butt" stroke-linejoin="miter" stroke-miterlimit="10" id="ygc60_18"/><path fill="rgb(0,0,0)" stroke="rgb(0,0,0)" d="M 3,-3.375 L 0,0 L 3,3.375 Z" fill-opacity="1" stroke-opacity="1" stroke-width="1" stroke-linecap="butt" stroke-linejoin="miter" stroke-miterlimit="10" id="ygc60_19"/><path fill="rgb(0,0,0)" stroke="rgb(0,0,0)" d="M 3,-3.375 L 0,0 L 3,3.375 Z" fill-opacity="1" stroke-opacity="1" stroke-width="1" stroke-linecap="butt" stroke-linejoin="miter" stroke-miterlimit="10" id="ygc60_20"/><path fill="rgb(0,0,0)" stroke="rgb(0,0,0)" d="M 3,-3.375 L 0,0 L 3,3.375 Z" fill-opacity="1" stroke-opacity="1" stroke-width="1" stroke-linecap="butt" stroke-linejoin="miter" stroke-miterlimit="10" id="ygc60_21"/><path fill="rgb(0,0,0)" stroke="rgb(0,0,0)" d="M 3,-3.375 L 0,0 L 3,3.375 Z" fill-opacity="1" stroke-opacity="1" stroke-width="1" stroke-linecap="butt" stroke-linejoin="miter" stroke-miterlimit="10" id="ygc60_22"/><path fill="rgb(0,0,0)" stroke="rgb(0,0,0)" d="M 3,-3.375 L 0,0 L 3,3.375 Z" fill-opacity="1" stroke-opacity="1" stroke-width="1" stroke-linecap="butt" stroke-linejoin="miter" stroke-miterlimit="10" id="ygc60_23"/></defs></svg>
